<svg version="1.1" id="Layer_1" xmlns="http://www.w3.org/2000/svg" xmlns:xlink="http://www.w3.org/1999/xlink" x="0px" y="0px"
	 width="100%" viewBox="0 0 1024 1024" enable-background="new 0 0 1024 1024" xml:space="preserve">
<path fill="#fff" opacity="1.000000" stroke="none" 
	d="
M564.110657,112.756897 
	C564.082764,107.650490 567.386658,106.447136 571.167908,105.418945 
	C587.326233,101.025230 603.181885,101.138855 619.241333,106.592056 
	C638.290955,113.060616 657.809387,118.200294 676.182861,126.551453 
	C699.524902,137.160950 722.182983,148.965759 743.188232,163.876678 
	C752.658203,170.599045 762.703857,176.639359 771.499573,184.174408 
	C784.238586,195.087555 797.142456,205.861572 808.742554,218.075882 
	C832.460327,243.049667 852.880371,270.452362 869.673096,300.500549 
	C880.488037,319.852264 889.059265,340.244843 896.360718,361.168030 
	C907.255493,392.388397 913.641357,424.592499 917.344116,457.384064 
	C920.100098,481.791656 920.283875,506.276062 918.067383,530.675049 
	C915.857422,555.001404 910.683899,578.814880 904.954224,602.618652 
	C899.208008,626.491211 889.566772,648.651245 879.730042,670.802734 
	C870.733765,691.061768 859.019470,709.939758 846.219727,727.997559 
	C834.096680,745.100647 820.428040,761.060120 806.000305,776.273071 
	C800.547302,782.022766 794.962341,787.801208 788.466187,792.517334 
	C781.755737,797.389221 776.997864,804.340820 769.955444,809.033936 
	C760.304688,815.465271 751.085083,822.583862 741.679321,829.385376 
	C728.506042,838.911316 714.132202,846.160400 700.025696,853.870483 
	C683.545471,862.878113 666.088562,869.795776 648.262329,875.965088 
	C629.179199,882.569336 609.800842,887.760620 590.053772,891.580017 
	C572.729919,894.930603 555.183960,896.445374 537.519409,897.458923 
	C509.441345,899.069763 481.560638,897.537537 453.775116,894.176025 
	C427.596069,891.008911 402.170288,884.496094 377.165100,875.877075 
	C358.040833,869.285156 339.679230,861.226501 321.715759,852.103333 
	C303.565338,842.885254 286.601990,831.689270 270.198944,819.737671 
	C257.323853,810.356567 245.395370,799.756897 233.554062,789.039124 
	C222.281708,778.836304 212.184143,767.626526 202.231140,756.260742 
	C190.609726,742.989685 180.102234,728.869507 170.551682,713.969604 
	C165.521027,706.121277 160.653336,698.233215 156.286789,690.018311 
	C154.984329,687.567993 153.697586,685.078613 153.296112,682.143188 
	C154.160538,681.943359 154.679291,681.640198 155.064438,681.761414 
	C163.131058,684.300964 163.098190,684.313721 162.189590,676.050964 
	C161.990158,674.237305 162.029831,672.389832 162.072433,670.560547 
	C162.090820,669.770752 162.396515,668.987610 162.691940,667.661926 
	C166.954407,669.325256 168.921814,672.935425 170.898026,676.079773 
	C182.144821,693.974548 193.777359,711.588989 206.397369,728.558960 
	C217.035858,742.864380 228.912796,756.110291 241.765732,768.343933 
	C261.290253,786.927734 282.243591,803.891174 305.209351,818.112488 
	C332.169342,834.807251 360.676849,848.209534 390.805817,858.365967 
	C418.147949,867.582947 446.237579,872.143188 474.781311,875.133301 
	C485.723358,876.279480 496.684174,876.579773 507.617340,877.518555 
	C510.927185,877.802734 514.247070,877.564148 517.701843,876.443604 
	C517.952637,871.932495 515.828857,868.030334 514.379639,864.095947 
	C502.004456,830.500061 491.105194,796.409241 480.121460,762.349121 
	C476.650970,751.587341 473.753479,740.637573 470.738953,729.733643 
	C469.603180,725.625488 468.163422,723.517456 462.943146,723.847229 
	C440.579193,725.260132 418.226776,724.299927 396.574554,718.134949 
	C368.256012,710.071838 340.762268,699.795410 318.028107,680.201782 
	C305.319214,669.248535 294.777893,656.371948 288.168884,640.680481 
	C286.671112,637.124268 286.003021,633.335632 285.578644,629.523132 
	C285.267761,626.730713 285.831268,623.912964 288.239471,622.365173 
	C291.704407,620.138123 293.100372,616.652222 295.043091,613.369690 
	C301.062134,603.199524 307.911713,593.589600 315.875610,584.844666 
	C320.558502,579.702515 320.067505,575.647949 313.478668,573.040649 
	C287.743256,562.856812 267.338898,545.594299 249.302246,525.158142 
	C246.558594,522.049500 244.356766,518.469421 241.754272,515.227905 
	C238.291748,510.915253 235.194778,510.835693 232.167557,515.293274 
	C221.937561,530.357056 209.037949,543.190552 197.283463,556.964111 
	C193.547806,561.341492 189.720703,565.767700 185.653900,569.906494 
	C183.933487,571.657410 182.252472,573.932434 179.516953,573.770813 
	C177.217773,573.635071 174.761520,572.870850 173.547150,570.634094 
	C172.080002,567.931946 173.832336,565.809570 175.503265,563.943359 
	C184.050339,554.397522 192.666168,544.913147 201.249939,535.400146 
	C209.624298,526.119202 216.815598,515.868469 224.919724,506.383209 
	C229.158981,501.421417 228.599319,496.383209 227.142715,490.995819 
	C226.070099,487.028564 223.288635,487.401978 220.468094,488.966980 
	C211.740219,493.809845 203.136108,498.880615 194.340988,503.596313 
	C177.327362,512.718567 160.477356,522.116394 144.123566,532.383118 
	C142.090775,533.659302 140.419617,533.625488 138.965195,531.561279 
	C136.809723,528.501892 137.245026,523.176514 140.173447,521.231995 
	C145.027054,518.009094 149.953186,514.859314 155.053253,512.049927 
	C176.915894,500.006927 198.820709,488.042725 220.265640,475.258789 
	C222.317108,474.035828 224.464859,472.866882 225.064896,470.452087 
	C225.764343,467.637177 227.595871,464.604279 225.611679,461.834198 
	C223.432236,458.791504 220.398331,460.911163 217.768616,461.376770 
	C193.514603,465.670868 169.265198,469.991943 145.032394,474.403717 
	C141.987457,474.958069 140.173004,474.290619 139.642838,471.073486 
	C139.294586,468.960297 138.061722,467.024109 138.418396,463.988007 
	C145.248093,462.428772 152.279587,460.611603 159.396759,459.238586 
	C180.146027,455.235840 200.927353,451.398865 221.702774,447.532684 
	C223.989365,447.107117 226.328735,446.972534 228.626511,446.597961 
	C232.209686,446.013824 237.770065,439.538940 237.425598,436.181274 
	C237.139542,433.393005 234.542160,433.693726 232.754608,433.454285 
	C224.344406,432.327606 215.892181,431.515289 207.481277,430.393402 
	C190.506195,428.129120 173.552307,425.706085 156.578384,423.432922 
	C154.217636,423.116791 151.319092,423.407654 152.101044,419.873657 
	C152.797226,416.727264 151.319351,411.548889 157.201584,411.916718 
	C164.669922,412.383698 172.121231,413.216919 179.557602,414.083344 
	C199.887115,416.451904 220.067307,419.846222 240.221664,423.353363 
	C244.280502,424.059662 246.252594,422.840973 248.113541,419.384979 
	C261.616089,394.308990 278.252533,371.601105 299.196289,352.139343 
	C316.446747,336.109436 336.237000,323.976624 357.274994,313.721527 
	C362.658203,311.097504 368.047943,308.543549 372.615906,304.579651 
	C379.997894,298.173889 389.249603,294.895111 397.406982,289.778442 
	C402.226471,286.755493 407.958221,286.972229 413.332916,286.041260 
	C417.440613,285.329803 421.556885,284.733887 425.555420,283.517456 
	C434.678680,280.742035 443.221100,281.374115 450.975952,287.542450 
	C454.328278,290.208893 465.138855,289.057007 467.621857,285.810181 
	C476.281067,274.487122 487.098724,265.351349 497.763763,256.092072 
	C513.850342,242.125992 530.530151,228.894867 548.457825,217.334869 
	C561.838501,208.706863 575.866394,201.624496 591.930176,199.303970 
	C603.150818,197.683075 612.799500,203.855179 615.660828,214.826309 
	C616.979309,219.881760 617.418213,224.986160 617.281799,230.173340 
	C617.198425,233.343323 617.330444,236.484116 618.734070,240.206619 
	C623.846680,235.288940 628.596985,230.524811 633.554993,225.987686 
	C647.698669,213.044769 663.377258,202.684647 681.812195,196.678482 
	C688.865845,194.380402 695.213379,195.876007 701.693665,198.182358 
	C703.763977,198.919205 703.924683,200.788986 704.307373,202.631210 
	C706.649719,213.907959 707.390015,225.396912 707.961304,236.816391 
	C708.909546,255.771118 709.806213,274.773041 708.996765,293.756866 
	C707.856506,320.498383 706.612671,347.237030 703.441650,373.852448 
	C702.517944,381.605316 702.408569,389.449524 700.455994,397.075806 
	C699.906006,399.223816 700.868652,400.818329 702.413330,402.377258 
	C717.179749,417.280426 731.332031,432.747986 744.306213,449.245789 
	C756.043335,464.170380 766.759705,479.812836 776.099670,496.359802 
	C795.602661,530.911621 822.187683,557.538452 859.799927,572.154114 
	C867.713013,575.229065 875.455811,578.636169 883.678650,580.922607 
	C887.686951,582.037231 889.278503,580.854187 889.971313,577.195190 
	C892.227234,565.279663 894.224243,553.318115 895.530640,541.263000 
	C897.214355,525.725098 899.020386,510.152222 898.623474,494.509369 
	C897.751343,460.135223 893.409302,426.306824 884.128662,393.012207 
	C878.109497,371.417969 870.499023,350.560028 861.067810,330.346405 
	C847.115417,300.442657 828.766052,273.388397 807.118958,248.472366 
	C797.161438,237.011093 787.312927,225.403137 774.894775,216.645325 
	C766.942688,211.037186 758.396851,206.176086 750.202942,200.843460 
	C748.372742,199.652313 746.733215,198.297913 745.393860,196.538162 
	C736.426941,184.756470 724.607849,176.835602 711.206116,170.886414 
	C707.653259,169.309280 704.562744,166.631073 701.377502,164.297989 
	C695.135925,159.726089 688.372437,156.224716 680.959900,154.015533 
	C673.068848,151.663727 666.893188,145.690201 658.938660,143.540573 
	C640.824951,138.645599 624.411865,128.822830 605.763428,125.428581 
	C595.460754,123.553360 585.248413,121.170250 575.018677,118.910606 
	C570.901123,118.001083 566.181152,118.054214 564.110657,112.756897 
M485.420258,738.151550 
	C487.802460,746.643433 489.960449,755.206238 492.615967,763.611755 
	C497.376068,778.678772 502.390442,793.666199 507.380341,808.659729 
	C514.628113,830.437744 522.064758,852.149109 530.799011,873.390869 
	C531.519958,875.144165 532.069397,876.734070 534.579346,876.490967 
	C560.910767,873.940369 587.124634,870.644348 612.892456,864.444763 
	C622.273865,862.187622 620.659363,863.907715 622.529053,853.292603 
	C627.827698,823.209106 636.015564,793.991760 648.393066,766.054321 
	C660.696594,738.283936 675.386536,711.853149 693.691833,687.500488 
	C701.474121,677.147339 709.049866,666.700500 717.705017,656.982788 
	C724.586670,649.256226 731.404175,641.571228 739.229309,634.800110 
	C739.954529,634.172668 740.718262,633.439514 740.381592,631.929688 
	C738.693604,631.026794 736.667236,631.340515 734.729248,631.345154 
	C713.081726,631.396484 691.455017,632.793091 669.798401,632.350281 
	C667.281372,632.298767 664.797974,632.318115 662.533997,630.994202 
	C656.800720,627.641235 650.692810,624.976685 644.881470,621.834473 
	C632.458862,615.117493 619.784912,608.899414 607.068176,602.832764 
	C587.252563,593.379578 567.507507,583.792847 547.815735,574.087769 
	C542.305786,571.372253 536.876892,568.409424 530.891296,566.744141 
	C528.312134,566.026611 526.046265,565.835266 524.396057,569.671509 
	C568.071655,591.506165 611.856995,612.605286 656.758118,634.038879 
	C647.721008,634.668457 639.829285,633.900879 631.895508,633.378845 
	C610.832947,631.992859 590.895447,626.349243 572.161865,616.979431 
	C555.347046,608.569458 539.529663,598.326965 523.734131,588.112915 
	C521.047852,586.375793 519.090027,584.359375 518.248169,581.339233 
	C517.078796,577.144043 514.300049,574.743958 510.391693,572.944641 
	C502.080200,569.118286 493.629822,565.426086 485.824463,560.706360 
	C473.683838,553.365173 460.886383,547.315491 448.298279,540.909180 
	C423.828735,528.456238 399.700470,515.386292 375.533966,502.374664 
	C365.423981,496.931335 355.610596,491.018616 346.049591,484.668518 
	C341.951660,481.946838 340.422729,477.324493 342.484253,472.976349 
	C344.769318,468.156677 348.429688,469.986084 351.903137,471.192108 
	C354.262634,472.011322 356.573486,472.981293 358.957886,473.715820 
	C363.736755,475.188019 368.551117,476.545044 373.350861,477.949615 
	C371.237427,475.737518 369.190002,473.933136 367.391693,471.808472 
	C360.623016,463.811279 352.221466,458.417664 341.935791,456.104828 
	C337.298462,455.062073 333.344299,452.525116 329.347198,450.165253 
	C327.664490,449.171783 326.082703,447.501740 326.850861,445.189575 
	C327.550323,443.084229 329.374878,442.069458 331.523773,442.049927 
	C334.679352,442.021179 337.847473,442.088043 340.991913,442.341888 
	C353.965515,443.389221 366.466705,447.063232 379.190369,449.476929 
	C413.137604,455.916840 446.650482,464.483215 480.717682,470.396545 
	C498.078613,473.410004 515.116211,478.141602 532.415344,481.338043 
	C551.191345,484.807312 569.559509,490.220978 588.523376,492.672485 
	C590.989441,492.991302 593.427063,493.754395 593.636169,496.541199 
	C593.978088,501.096802 597.009216,501.847076 600.601074,502.713898 
	C628.253906,509.387115 656.468811,513.393738 684.053772,520.432312 
	C689.787537,521.895325 695.544617,523.948425 701.643799,523.827881 
	C703.610657,523.789001 705.360901,523.512085 705.535278,521.002625 
	C705.686523,518.824585 704.803772,517.603333 702.562012,517.181152 
	C700.442749,516.782043 698.410034,515.929810 696.292908,515.511841 
	C667.919434,509.910461 639.702637,503.586517 611.534973,497.047668 
	C603.839050,495.261169 596.266113,492.944458 588.628113,490.868713 
	C588.681030,486.898285 591.900208,485.257263 593.522949,482.666260 
	C602.081604,469.000916 610.410767,455.293091 616.524963,440.227966 
	C623.901978,422.051147 627.531006,403.260742 627.352295,383.829834 
	C627.160156,362.929260 615.948303,347.486877 599.634521,336.133331 
	C582.528992,324.228699 563.681458,315.401825 543.440552,309.773376 
	C523.489197,304.225433 503.269012,300.578156 482.526337,300.307678 
	C453.375763,299.927490 424.693298,303.506073 396.803345,312.005280 
	C369.454498,320.339508 343.440033,331.645508 320.485931,349.165405 
	C316.372437,352.305084 312.630005,355.727692 308.943512,359.366669 
	C300.320251,367.878876 304.158295,382.714447 311.514252,388.758911 
	C314.313995,391.059540 316.759186,391.584595 319.043457,388.204346 
	C321.046295,385.240540 323.763123,383.060364 326.818604,381.285522 
	C331.323822,378.668518 333.631165,379.859100 334.174164,385.024750 
	C334.426758,387.428040 333.722717,389.653687 332.861420,391.827209 
	C329.893585,399.316833 324.004089,403.939606 316.850006,406.685181 
	C305.193054,411.158844 295.589996,406.683929 290.524658,395.343414 
	C288.358612,390.493988 287.261047,385.673462 289.063171,380.358917 
	C278.342590,393.182770 268.293701,406.042938 260.337891,420.735962 
	C261.295746,420.816772 261.656921,420.957397 261.915344,420.850281 
	C263.144073,420.340851 264.353729,419.782532 265.554199,419.208191 
	C277.156006,413.657959 289.311005,411.817017 301.991669,414.001892 
	C309.063171,415.220276 312.985901,420.318695 314.945374,426.544678 
	C316.815857,432.487823 313.930603,436.861267 308.784088,440.428619 
	C304.499420,443.398590 300.127075,446.017120 295.347351,447.976379 
	C292.914490,448.973602 291.100098,450.005310 290.786346,453.117554 
	C290.489807,456.058929 292.632568,456.249084 294.169952,457.303864 
	C295.998749,458.558655 297.751190,460.372620 294.802429,461.741882 
	C290.848450,463.578033 290.612091,466.671967 290.117767,470.274353 
	C289.657471,473.628784 289.309235,477.613770 284.434967,478.770630 
	C283.107849,475.345856 284.887482,472.303162 284.759155,469.229126 
	C284.612427,465.714142 284.331818,462.901886 279.692444,463.081421 
	C277.448792,463.168213 276.028534,461.775269 276.177185,459.079010 
	C276.828156,458.648468 277.486847,458.170837 278.184601,457.759460 
	C280.135834,456.608887 281.655670,455.226074 281.644348,452.692291 
	C281.631348,449.790131 279.079285,449.934937 277.424011,449.234680 
	C273.830292,447.714508 270.865417,445.787018 268.589386,442.358307 
	C265.100983,437.103210 263.423096,431.425751 263.659607,425.261047 
	C258.699554,425.524811 255.796295,427.046295 255.540115,431.705597 
	C255.449341,433.356445 254.261932,434.373505 252.788651,434.971527 
	C250.911804,435.733276 249.940216,437.276917 249.391846,439.057831 
	C248.105011,443.237183 246.085938,447.095367 243.834213,450.764801 
	C234.391647,466.152527 235.896423,482.275970 240.520447,498.541138 
	C242.150818,504.275970 244.205841,505.179352 249.856033,503.059937 
	C260.750580,498.973267 271.829224,497.308411 283.550049,497.547546 
	C311.888367,498.125671 337.959625,505.904999 362.091888,520.450623 
	C368.760132,524.469910 375.310760,528.687134 381.721527,533.176697 
	C398.224060,544.733948 411.261749,559.010376 418.729065,577.804626 
	C422.737762,587.893982 424.930176,598.518616 423.289581,609.524292 
	C421.959106,618.449463 419.330658,626.857727 415.018829,634.954529 
	C408.334686,647.506042 398.283936,656.427795 386.289093,663.181519 
	C370.519958,672.060425 353.235748,672.435181 335.726685,670.663391 
	C332.280304,670.314636 328.822937,669.175049 324.436005,669.881775 
	C327.514923,672.455872 329.833313,674.597534 332.353149,676.467896 
	C348.720154,688.615784 366.949921,696.867859 386.500580,702.427673 
	C404.476929,707.539734 422.664032,711.122742 441.403442,712.003540 
	C445.071167,712.175903 448.584686,710.975281 452.069153,711.568176 
	C459.378662,712.811768 466.653809,712.192810 473.839996,711.252869 
	C477.315765,710.798279 478.637665,712.007019 479.091400,714.748901 
	C480.375580,722.509338 483.253448,729.812134 485.420258,738.151550 
M688.208435,318.926971 
	C688.344788,318.105957 688.578369,317.287842 688.603149,316.463470 
	C689.293518,293.496033 689.349243,270.539185 686.747681,247.666626 
	C685.771545,239.084824 676.111450,234.704468 668.507812,239.114029 
	C659.450378,244.366714 652.503662,252.031464 645.238647,259.318909 
	C629.971497,274.633301 615.955139,291.030884 603.161133,308.467194 
	C599.038391,314.085907 599.150024,317.570984 604.457581,321.780060 
	C614.728638,329.925476 625.001648,338.115082 635.759338,345.587524 
	C647.104858,353.468262 658.485229,361.216888 668.707703,370.575378 
	C673.049194,374.549988 677.143188,378.910858 682.941956,382.539948 
	C686.493835,361.225800 687.430481,340.555847 688.208435,318.926971 
M421.656525,471.050903 
	C405.309204,467.269623 388.904694,463.770386 372.353180,460.986572 
	C370.924194,460.746185 369.320465,459.715607 368.498779,461.740417 
	C367.775116,463.523712 369.118835,464.533478 370.412598,465.343353 
	C374.215546,467.723846 377.852020,470.503113 381.916565,472.309998 
	C400.790283,480.700317 420.448029,487.024139 439.995453,493.589874 
	C458.905945,499.941650 478.001923,505.738892 496.972046,511.916046 
	C511.355164,516.599548 525.592651,521.745728 540.055298,526.160767 
	C544.918579,527.645325 549.718506,530.597839 555.594910,527.401917 
	C558.985229,525.558044 561.751465,529.178406 560.952698,533.912537 
	C568.366943,536.690613 576.194397,538.170471 583.854980,540.248352 
	C608.390259,546.903503 632.952698,553.440186 657.655457,559.459045 
	C664.905884,561.225647 672.182922,562.943481 679.319946,565.276917 
	C685.408264,567.267395 691.732239,569.128601 698.372864,567.830994 
	C699.731262,567.565552 701.133545,567.343384 701.458008,565.781128 
	C701.815002,564.062012 700.380310,563.525391 699.155151,563.013672 
	C698.240662,562.631592 697.271057,562.368469 696.309998,562.112671 
	C680.269775,557.843628 664.239624,553.535828 648.181885,549.333313 
	C621.491821,542.348389 594.429688,536.782532 568.123291,528.334473 
	C565.639343,527.536743 562.156433,527.439026 561.594299,524.549744 
	C560.901428,520.988220 560.527588,517.131775 564.722046,514.487854 
	C569.191223,511.670776 572.875122,507.846222 575.345886,502.220581 
	C524.144958,491.827240 473.320618,481.510345 421.656525,471.050903 
M373.544373,482.995575 
	C369.436401,483.391327 366.445709,479.854767 361.167328,479.343414 
	C362.907043,480.561310 363.546692,481.016327 364.193481,481.460938 
	C384.757599,495.595978 407.767609,505.332764 429.421509,517.518127 
	C441.413696,524.266541 454.058350,529.937256 466.250702,536.422668 
	C479.722137,543.588501 493.570923,550.022034 506.635895,557.980530 
	C515.157166,563.171265 519.365601,562.529541 527.473938,556.093262 
	C529.820374,554.230713 532.318848,552.534912 534.506042,550.502625 
	C537.491089,547.729065 540.315491,544.760437 542.238525,541.169006 
	C540.808655,539.176514 538.907776,538.924622 537.211121,538.364746 
	C512.276672,530.136719 487.408417,521.697388 462.365967,513.811462 
	C447.289948,509.063995 432.459564,503.667847 417.548981,498.469238 
	C409.070282,495.513062 400.506592,492.875214 392.209564,489.346893 
	C386.432739,486.890259 380.619659,484.266479 373.544373,482.995575 
M799.497864,679.121704 
	C798.795227,676.994995 796.687256,676.891235 795.080566,676.262634 
	C778.213928,669.664001 761.973572,661.663940 745.508789,654.169800 
	C742.155396,652.643372 739.112305,651.716309 737.022278,655.719238 
	C734.869934,659.841492 737.941589,661.354248 740.900574,662.799438 
	C753.587280,668.995972 766.199829,675.352783 779.007080,681.289368 
	C783.599915,683.418274 788.092651,686.354675 793.579956,685.901428 
	C797.319458,685.592590 800.148926,684.434875 799.497864,679.121704 
M758.579102,744.575928 
	C761.293762,744.873108 762.613770,742.997192 763.284119,740.960510 
	C763.945435,738.951111 762.208862,737.590881 760.809143,736.440125 
	C759.535950,735.393433 758.117737,734.491821 756.672241,733.690979 
	C745.322754,727.403381 732.981323,723.174438 721.678223,716.750000 
	C717.516479,714.384338 712.854614,712.901184 708.429626,710.995361 
	C704.137329,709.146851 703.421143,713.304260 701.788574,715.297546 
	C700.115112,717.340881 701.963074,719.040955 703.847595,719.999573 
	C707.549194,721.882446 711.300110,723.678406 715.093689,725.368652 
	C729.346375,731.718994 743.046509,739.312134 758.579102,744.575928 
M803.665466,607.951050 
	C795.555969,604.140503 787.315369,600.648193 779.005981,597.288086 
	C775.728210,595.962646 774.191772,596.505615 772.768677,599.563354 
	C771.235901,602.856506 772.500854,604.348083 775.477295,605.630798 
	C793.478088,613.389038 811.430603,621.259460 829.401978,629.086121 
	C834.075623,631.121460 835.152893,630.209412 834.815308,625.050781 
	C834.646973,622.478333 833.358398,621.172668 831.221558,620.221436 
	C822.267883,616.235901 813.331055,612.212585 803.665466,607.951050 
M343.381958,639.252380 
	C344.994781,640.487183 343.842133,641.227417 342.835968,641.833313 
	C341.203430,642.816467 339.496735,643.676575 337.556366,644.732849 
	C354.267365,648.764893 387.457672,640.440002 395.669373,627.776672 
	C391.190094,627.177063 386.723602,626.940247 382.449066,625.908386 
	C377.891785,624.808289 374.109039,627.813965 373.387024,630.338989 
	C371.761993,636.022339 366.527405,637.645996 363.955566,641.739319 
	C360.255646,640.395813 358.001740,638.466248 357.018616,634.661316 
	C356.273071,631.776062 353.747253,629.869629 350.599731,628.934692 
	C343.565796,626.845337 338.636566,629.131531 332.776245,637.804382 
	C336.341095,637.540771 339.539948,638.221008 343.381958,639.252380 
M719.898865,790.488708 
	C708.142944,785.071716 696.424377,779.571350 684.610168,774.284668 
	C680.693970,772.532227 676.530457,771.333069 672.482361,769.874268 
	C670.494385,769.157959 668.606262,768.711548 667.329468,771.098267 
	C666.101013,773.394592 665.981018,775.496155 668.057556,777.412354 
	C670.164062,779.356323 672.560364,780.684082 675.273804,781.682861 
	C681.796692,784.083984 688.317261,786.462585 694.620178,789.483337 
	C701.936890,792.989746 709.272339,796.617371 717.269714,798.432556 
	C719.318970,798.897766 721.668091,799.469666 722.712585,796.590271 
	C723.640991,794.030884 723.163818,792.029297 719.898865,790.488708 
M313.168365,528.686462 
	C306.537964,535.830139 307.287537,545.983032 302.105591,554.136780 
	C307.643250,555.976562 311.950287,559.159119 318.426086,560.708008 
	C316.863495,547.091125 329.058899,539.212219 330.253571,527.115295 
	C323.521210,522.164490 319.015076,522.488586 313.168365,528.686462 
M295.207092,538.902161 
	C298.079529,532.530762 302.542114,527.232117 308.201630,520.746338 
	C303.212372,522.061157 300.190002,520.687073 296.980927,519.308411 
	C294.127991,518.082825 290.861908,518.027771 289.213196,522.133728 
	C288.525574,523.846069 286.627838,525.074280 285.274231,526.516968 
	C277.734955,534.552368 277.564514,537.694885 284.375580,543.161316 
	C290.321411,547.933350 292.637939,547.155457 295.207092,538.902161 
M319.695648,640.744629 
	C322.189728,641.175232 324.614044,642.458496 327.617798,641.598755 
	C325.086395,632.756592 321.558197,624.795959 316.161713,617.715637 
	C314.873383,616.025330 313.211975,614.916931 311.001068,615.442627 
	C307.305481,616.321350 305.820984,619.402832 305.827026,622.558411 
	C305.835144,626.830566 301.508301,631.546753 306.597534,635.383728 
	C308.287689,636.657959 310.354950,637.484253 312.336975,638.304749 
	C314.479248,639.191650 316.723450,639.832214 319.695648,640.744629 
M351.398956,534.895325 
	C348.141541,530.504700 342.704437,530.673950 338.292938,528.711731 
	C336.991943,528.133057 336.267853,529.474304 335.788940,530.571655 
	C334.436096,533.671387 333.634613,536.911316 334.396240,540.258972 
	C335.258148,544.047302 337.568207,546.928650 341.254639,548.181091 
	C344.847809,549.401794 345.743744,545.692505 347.809052,544.053223 
	C350.608429,541.831177 350.813995,538.685547 351.398956,534.895325 
M260.352722,518.287354 
	C258.075012,519.353271 258.674896,520.710205 259.877014,522.243042 
	C261.849609,524.758362 264.437988,525.795166 267.383972,524.727478 
	C270.621307,523.554260 273.623199,521.835876 273.685547,517.398560 
	C269.245178,517.050415 265.125397,516.856506 260.352722,518.287354 
M383.173035,551.898865 
	C380.021545,547.859558 374.959167,546.205505 371.489838,542.525635 
	C370.325012,541.290100 369.012543,539.856201 366.538666,540.099304 
	C367.616455,543.894226 367.360626,549.743103 372.024170,549.312561 
	C376.536713,548.895996 379.354919,550.708374 383.173035,551.898865 
M272.464050,532.625732 
	C273.434998,533.565857 274.360504,534.696960 275.546814,532.819519 
	C276.845795,530.763550 278.212830,528.750610 279.839752,526.279053 
	C276.992645,526.763000 276.994751,524.935364 277.083527,522.963867 
	C271.547211,528.553711 271.547211,528.553711 272.464050,532.625732 
z"/>
<path fill="#fff" opacity="1.000000" stroke="none" 
	d="
M141.050140,360.882324 
	C140.747131,357.863068 140.903275,355.142548 138.884598,352.807678 
	C135.569748,353.675812 135.279877,358.094818 131.803314,358.725922 
	C130.840912,357.063904 131.756577,355.485168 132.254349,354.057373 
	C142.217239,325.479858 155.931519,298.856873 172.616486,273.565643 
	C185.882690,253.456619 200.744904,234.638931 217.510818,217.584305 
	C238.611710,196.120087 261.464752,176.675430 287.298340,160.588287 
	C299.257263,153.141174 311.245667,145.676025 323.559540,138.915558 
	C341.507172,129.062103 360.255737,120.760811 380.168610,115.467743 
	C381.141418,115.209160 382.127533,115.000549 383.658325,116.314262 
	C380.217773,120.392082 381.362488,124.983345 382.681702,129.797501 
	C383.318665,132.121948 380.719940,133.284958 378.904022,134.532013 
	C367.830414,142.136536 355.047150,146.302811 343.236725,152.408478 
	C320.444458,164.191498 298.270721,177.115631 277.693939,192.438980 
	C264.651459,202.151596 252.255554,212.791504 240.871628,224.538712 
	C232.536423,233.139908 223.747177,241.293198 215.892014,250.369659 
	C207.272980,260.328735 200.061539,271.309479 192.444992,282.003601 
	C172.580170,309.895172 158.582611,340.785370 146.024399,372.420441 
	C144.732208,375.675598 142.571640,378.349182 140.063553,382.025940 
	C138.278625,374.343475 143.171722,367.951355 141.050140,360.882324 
z"/>
<path fill="#fff" opacity="1.000000" stroke="none" 
	d="
M745.622070,222.644165 
	C742.000488,220.602951 739.218506,218.366104 738.992126,214.186691 
	C738.847046,211.509628 739.676331,209.258270 742.064392,207.851624 
	C744.342285,206.509857 746.555176,207.122910 748.599609,208.458832 
	C752.881531,211.256943 754.577271,215.480759 754.511230,220.356888 
	C754.460938,224.069687 751.586060,224.825897 745.622070,222.644165 
z"/>
<path fill="#fff" opacity="1.000000" stroke="none" 
	d="
M225.268707,383.459290 
	C225.735367,385.523346 224.947861,386.723602 223.455124,387.411377 
	C221.624924,388.254608 219.875519,387.979279 218.409332,386.545929 
	C217.375320,385.535065 216.901932,384.244965 217.573944,382.920044 
	C218.577850,380.940826 220.447968,380.911743 222.336136,381.221863 
	C223.543381,381.420135 224.466354,382.101654 225.268707,383.459290 
z"/>
<path fill="#fff" opacity="1.000000" stroke="none" 
	d="
M496.481750,401.694458 
	C490.113464,404.553986 484.037689,403.516998 478.087280,401.797058 
	C464.007538,397.727356 450.067017,398.009705 436.512756,403.498138 
	C428.011993,406.940308 420.333252,412.180267 413.127045,417.739380 
	C403.712799,425.001892 393.575714,426.446106 382.504852,423.889984 
	C376.670074,422.542816 372.899536,418.105896 370.806213,413.029602 
	C367.685211,405.461304 367.583466,397.425476 370.598511,389.622772 
	C371.631836,386.948578 373.330078,384.707672 375.986511,383.278015 
	C378.993408,381.659790 382.300232,380.100220 385.429993,381.659424 
	C388.822754,383.349731 386.998291,387.041046 387.026154,389.864868 
	C387.057068,393.000916 386.288025,396.158325 386.446930,399.276886 
	C386.811493,406.431610 392.962769,409.448090 398.826874,405.400970 
	C406.224792,400.295258 413.934753,395.729401 421.749725,391.300262 
	C439.522675,381.227295 458.271851,379.535706 477.723297,384.808960 
	C483.637726,386.412323 489.363220,388.987488 494.296967,392.724182 
	C496.995056,394.767639 500.050598,397.371185 496.481750,401.694458 
z"/>
</svg>