<?xml version="1.0" encoding="UTF-8"?>
<!DOCTYPE svg PUBLIC "-//W3C//DTD SVG 1.1//EN" "http://www.w3.org/Graphics/SVG/1.1/DTD/svg11.dtd">
<svg xmlns="http://www.w3.org/2000/svg" version="1.1" width="1024px" height="1024px" style="shape-rendering:geometricPrecision; text-rendering:geometricPrecision; image-rendering:optimizeQuality; fill-rule:evenodd; clip-rule:evenodd" xmlns:xlink="http://www.w3.org/1999/xlink">
<g><path style="opacity:1" fill="#fcfcfc" d="M -0.5,-0.5 C 340.833,-0.5 682.167,-0.5 1023.5,-0.5C 1023.5,340.833 1023.5,682.167 1023.5,1023.5C 682.167,1023.5 340.833,1023.5 -0.5,1023.5C -0.5,682.167 -0.5,340.833 -0.5,-0.5 Z"/></g>
<g><path style="opacity:1" fill="#030303" d="M 797.5,529.5 C 796.402,530.601 796.235,531.934 797,533.5C 798.549,535.618 799.716,537.951 800.5,540.5C 808.311,547.984 816.645,554.818 825.5,561C 836.616,566.392 847.616,572.059 858.5,578C 866.707,579.91 874.874,582.076 883,584.5C 884.417,583.922 885.25,582.922 885.5,581.5C 886.391,582.11 887.391,582.443 888.5,582.5C 876.555,639.057 852.721,690.057 817,735.5C 795.872,759.959 772.705,782.459 747.5,803C 732.504,813.167 717.171,822.833 701.5,832C 691.322,836.434 681.322,840.934 671.5,845.5C 660.523,849.77 649.523,853.936 638.5,858C 632.613,859.806 626.613,860.972 620.5,861.5C 620.5,860.5 620.5,859.5 620.5,858.5C 621.911,848.358 623.911,838.358 626.5,828.5C 627.924,826.485 628.59,824.152 628.5,821.5C 635.49,792.569 645.99,764.902 660,738.5C 664.477,730.075 669.144,721.742 674,713.5C 686.279,695.555 698.946,677.888 712,660.5C 721.446,649.721 731.613,639.554 742.5,630C 715.5,629.667 688.5,629.333 661.5,629C 635.432,614.802 608.765,601.635 581.5,589.5C 572.595,584.976 563.595,580.642 554.5,576.5C 546.192,571.67 537.525,567.504 528.5,564C 525.692,563.08 523.525,563.913 522,566.5C 521.383,567.449 521.549,568.282 522.5,569C 531.671,573.752 541.005,578.252 550.5,582.5C 559.703,587.934 569.37,592.6 579.5,596.5C 602.322,608.077 625.322,619.411 648.5,630.5C 644.03,631.486 639.363,631.819 634.5,631.5C 627.466,631.246 620.466,630.579 613.5,629.5C 600.954,626.22 588.621,622.387 576.5,618C 557.536,607.518 538.87,596.518 520.5,585C 518.618,582.022 517.118,578.855 516,575.5C 506.094,569.128 495.594,563.628 484.5,559C 471.438,551.805 458.438,544.639 445.5,537.5C 448.193,533.418 450.026,533.751 451,538.5C 451.309,537.234 451.809,536.067 452.5,535C 451.382,533.926 450.382,532.76 449.5,531.5C 447.039,532.307 444.706,531.807 442.5,530C 443,529.5 443.5,529 444,528.5C 445.049,529.517 446.216,529.684 447.5,529C 446.262,528.31 446.262,527.81 447.5,527.5C 458.638,533.234 469.971,538.734 481.5,544C 489.121,547.978 496.454,552.311 503.5,557C 510.614,561.443 517.614,561.443 524.5,557C 531.636,552.03 537.969,546.197 543.5,539.5C 537.511,536.171 531.177,533.838 524.5,532.5C 522.9,531.356 521.233,530.189 519.5,529C 520.167,528.667 520.833,528.333 521.5,528C 518.957,527.86 516.623,527.194 514.5,526C 515,525.5 515.5,525 516,524.5C 517.525,525.72 519.359,526.387 521.5,526.5C 523.167,526.333 524.833,526.167 526.5,526C 524.167,525.667 521.833,525.333 519.5,525C 520.99,523.228 522.657,523.061 524.5,524.5C 525.5,523.833 526.5,523.167 527.5,522.5C 528.354,523.522 529.354,524.355 530.5,525C 530.167,525.333 529.833,525.667 529.5,526C 532.482,526.498 535.482,526.665 538.5,526.5C 541.725,526.411 544.725,527.077 547.5,528.5C 549.514,528.563 551.181,527.897 552.5,526.5C 554.735,526.205 556.735,526.539 558.5,527.5C 559.37,529.032 559.036,530.532 557.5,532C 558.167,532.667 558.833,533.333 559.5,534C 600.351,544.378 641.018,555.045 681.5,566C 687.452,567.33 693.452,567.663 699.5,567C 702.841,564.528 702.841,562.528 699.5,561C 675.891,554.69 652.224,548.356 628.5,542C 620.587,539.972 612.587,538.472 604.5,537.5C 590.702,533.071 576.702,528.905 562.5,525C 561.572,524.612 560.905,523.945 560.5,523C 562.112,521.518 563.112,519.685 563.5,517.5C 562.209,517.737 561.209,517.404 560.5,516.5C 563.545,513.453 566.878,510.787 570.5,508.5C 572.604,508.799 574.604,508.466 576.5,507.5C 575.66,506.265 574.66,505.265 573.5,504.5C 576.442,501.534 575.775,499.7 571.5,499C 561.101,497.656 550.767,495.989 540.5,494C 525.07,490.973 509.737,487.306 494.5,483C 485.536,482.451 476.869,480.951 468.5,478.5C 467.192,477.768 465.858,476.934 464.5,476C 464.833,475.667 465.167,475.333 465.5,475C 468.68,475.523 471.68,475.356 474.5,474.5C 469.61,472.46 464.61,471.96 459.5,473C 458.415,470.828 457.081,468.828 455.5,467C 456.244,465.961 457.244,465.461 458.5,465.5C 480.799,469.784 503.132,474.451 525.5,479.5C 528.876,481.082 532.542,481.749 536.5,481.5C 538.117,482.038 539.784,482.371 541.5,482.5C 544.876,484.082 548.542,484.749 552.5,484.5C 561.301,488.362 570.634,490.362 580.5,490.5C 583.907,492.074 587.573,493.074 591.5,493.5C 591.232,496.119 591.565,498.619 592.5,501C 616.687,506.631 641.02,511.464 665.5,515.5C 667.838,517.04 670.505,517.706 673.5,517.5C 675.905,518.768 678.572,519.435 681.5,519.5C 682.919,520.451 684.585,520.784 686.5,520.5C 688.599,521.612 690.933,522.279 693.5,522.5C 697.135,523.114 700.802,523.448 704.5,523.5C 704.777,520.552 704.444,517.719 703.5,515C 692.44,513.021 681.44,510.855 670.5,508.5C 651.706,503.917 632.706,499.751 613.5,496C 604.617,493.128 595.95,490.295 587.5,487.5C 607.628,462.234 620.461,433.567 626,401.5C 626.579,391.82 626.412,382.153 625.5,372.5C 625.706,369.505 625.04,366.838 623.5,364.5C 619.104,354.877 613.104,346.377 605.5,339C 574.446,316.827 539.779,303.494 501.5,299C 480.49,298.308 459.49,298.475 438.5,299.5C 437.448,299.649 436.448,299.483 435.5,299C 436.77,298.1 437.77,296.934 438.5,295.5C 439.425,296.641 440.259,296.641 441,295.5C 442.29,298.869 443.79,298.535 445.5,294.5C 444.463,292.319 443.13,292.319 441.5,294.5C 440.137,293.802 438.971,293.802 438,294.5C 436.489,293.436 436.323,292.103 437.5,290.5C 447.03,288.699 456.696,287.699 466.5,287.5C 466.884,284.231 468.218,281.397 470.5,279C 494.753,255.402 520.753,234.068 548.5,215C 555.984,210.484 563.65,206.484 571.5,203C 578.553,201.317 585.553,199.817 592.5,198.5C 604.178,198.035 611.344,203.368 614,214.5C 615.098,223.463 615.765,232.463 616,241.5C 628.298,227.205 642.465,215.039 658.5,205C 667.666,199.669 677.499,196.169 688,194.5C 692.345,194.809 696.512,195.809 700.5,197.5C 702.588,201.178 703.755,205.178 704,209.5C 708.667,271.633 706.834,333.466 698.5,395C 698.833,396.833 699.167,398.667 699.5,400.5C 725.792,426.29 748.958,454.624 769,485.5C 777.224,500.936 786.724,515.602 797.5,529.5 Z"/></g>
<g><path style="opacity:1" fill="#fafafa" d="M 623.5,364.5 C 623.565,367.428 624.232,370.095 625.5,372.5C 626.412,382.153 626.579,391.82 626,401.5C 620.461,433.567 607.628,462.234 587.5,487.5C 586.009,490.091 583.675,491.091 580.5,490.5C 570.634,490.362 561.301,488.362 552.5,484.5C 549.054,483.313 545.387,482.646 541.5,482.5C 539.784,482.371 538.117,482.038 536.5,481.5C 533.054,480.313 529.387,479.646 525.5,479.5C 503.132,474.451 480.799,469.784 458.5,465.5C 427.358,460.135 396.358,453.635 365.5,446C 356.78,444.922 348.113,443.589 339.5,442C 335.5,441.333 331.5,441.333 327.5,442C 324.808,444.632 325.141,446.966 328.5,449C 337.592,452.377 346.592,456.044 355.5,460C 362.074,465.421 368.408,470.921 374.5,476.5C 372.5,476.5 370.5,476.5 368.5,476.5C 363.638,474.657 358.638,472.991 353.5,471.5C 341.216,466.947 337.883,470.447 343.5,482C 360.928,493.399 378.928,503.565 397.5,512.5C 401.379,515.607 405.712,517.941 410.5,519.5C 418.276,524.226 426.276,528.726 434.5,533C 438.093,534.781 441.76,536.281 445.5,537.5C 458.438,544.639 471.438,551.805 484.5,559C 495.594,563.628 506.094,569.128 516,575.5C 517.118,578.855 518.618,582.022 520.5,585C 538.87,596.518 557.536,607.518 576.5,618C 588.621,622.387 600.954,626.22 613.5,629.5C 620.466,630.579 627.466,631.246 634.5,631.5C 640.987,632.654 647.654,632.821 654.5,632C 652.75,630.681 650.75,630.181 648.5,630.5C 625.322,619.411 602.322,608.077 579.5,596.5C 579.003,594.403 578.67,592.57 578.5,591C 579.527,590.487 580.527,589.987 581.5,589.5C 608.765,601.635 635.432,614.802 661.5,629C 688.5,629.333 715.5,629.667 742.5,630C 731.613,639.554 721.446,649.721 712,660.5C 698.946,677.888 686.279,695.555 674,713.5C 669.144,721.742 664.477,730.075 660,738.5C 645.99,764.902 635.49,792.569 628.5,821.5C 627.076,823.515 626.41,825.848 626.5,828.5C 623.911,838.358 621.911,848.358 620.5,858.5C 619.596,859.209 619.263,860.209 619.5,861.5C 589.9,868.617 559.9,873.284 529.5,875.5C 509.343,821.812 491.676,767.146 476.5,711.5C 475.947,709.448 474.947,709.115 473.5,710.5C 453.562,711.968 433.562,711.468 413.5,709C 407.518,707.176 401.518,705.676 395.5,704.5C 393.485,703.076 391.152,702.41 388.5,702.5C 373.89,698.502 359.89,693.168 346.5,686.5C 337.632,681.307 329.299,675.307 321.5,668.5C 322.568,667.566 323.901,667.232 325.5,667.5C 347.051,672.091 367.717,669.591 387.5,660C 391.714,656.118 396.214,652.618 401,649.5C 426.552,619.89 428.219,588.89 406,556.5C 375.621,522.56 337.788,502.726 292.5,497C 275.834,494.704 259.834,496.871 244.5,503.5C 241.178,502.342 239.012,500.008 238,496.5C 234.8,486.053 233.8,475.387 235,464.5C 237.642,455.548 241.642,447.214 247,439.5C 246.74,435.098 248.74,432.432 253,431.5C 253.49,430.207 253.657,428.873 253.5,427.5C 254.249,426.469 254.915,425.302 255.5,424C 257.586,423.685 259.586,423.185 261.5,422.5C 262.167,425.5 262.833,428.5 263.5,431.5C 264.975,436.603 267.641,441.103 271.5,445C 274.353,446.43 277.353,447.263 280.5,447.5C 281.864,453.096 279.864,456.762 274.5,458.5C 274.855,459.522 275.522,460.189 276.5,460.5C 278.974,461.105 281.307,462.105 283.5,463.5C 283.5,466.5 283.5,469.5 283.5,472.5C 282.212,474.035 282.212,475.701 283.5,477.5C 284.107,477.376 284.44,477.043 284.5,476.5C 287.834,472.168 289.334,467.168 289,461.5C 296.352,459.173 296.186,457.173 288.5,455.5C 288.223,452.552 288.556,449.719 289.5,447C 298.229,444.262 305.896,439.762 312.5,433.5C 314.567,422.714 310.234,415.881 299.5,413C 284.609,410.278 270.943,413.111 258.5,421.5C 258.167,420.833 257.833,420.167 257.5,419.5C 265.675,405.006 275.342,391.672 286.5,379.5C 287.404,380.209 287.737,381.209 287.5,382.5C 288.434,403.31 298.767,410.143 318.5,403C 328.4,398.026 332.567,390.193 331,379.5C 330.439,378.978 329.772,378.645 329,378.5C 326.61,379.278 324.443,380.445 322.5,382C 319.6,384.9 316.767,387.733 314,390.5C 307.705,386.873 303.705,381.54 302,374.5C 301.333,371.167 301.333,367.833 302,364.5C 305.419,359.077 309.585,354.244 314.5,350C 338.283,332.442 364.283,319.108 392.5,310C 407.844,305.927 423.178,302.427 438.5,299.5C 459.49,298.475 480.49,298.308 501.5,299C 539.779,303.494 574.446,316.827 605.5,339C 613.104,346.377 619.104,354.877 623.5,364.5 Z"/></g>
<g><path style="opacity:1" fill="#daa83b" d="M 147.5,389.5 C 147.643,391.262 147.309,392.929 146.5,394.5C 147.274,395.711 148.107,395.711 149,394.5C 149.481,396.478 150.647,397.811 152.5,398.5C 154.473,397.669 156.473,397.502 158.5,398C 158.167,398.333 157.833,398.667 157.5,399C 159.32,399.979 160.487,401.479 161,403.5C 161.293,400.046 162.626,399.712 165,402.5C 168.876,402.792 172.876,402.792 177,402.5C 179.175,402.834 181.008,403.834 182.5,405.5C 184.78,406.311 187.28,406.311 190,405.5C 193.463,408.987 197.297,409.32 201.5,406.5C 202.842,407.902 203.676,407.569 204,405.5C 204.667,409.5 205.333,409.5 206,405.5C 206.333,406.5 206.667,407.5 207,408.5C 209.104,406.262 211.438,405.262 214,405.5C 214.456,406.744 213.956,407.577 212.5,408C 213.634,409.016 213.301,409.683 211.5,410C 213.055,411.646 214.721,411.979 216.5,411C 215.346,411.914 215.513,412.747 217,413.5C 218.057,411.1 218.724,408.767 219,406.5C 221.446,407.909 224.112,408.909 227,409.5C 227.308,408.692 227.808,408.025 228.5,407.5C 229.696,407.846 229.696,408.346 228.5,409C 229.549,409.492 230.549,409.326 231.5,408.5C 232.192,409.025 232.692,409.692 233,410.5C 233.967,409.322 234.467,407.989 234.5,406.5C 235.5,406.833 236.167,407.5 236.5,408.5C 235.674,409.451 235.508,410.451 236,411.5C 237.32,411.201 238.82,411.034 240.5,411C 239.483,409.951 239.316,408.784 240,407.5C 241.585,408.376 242.585,409.709 243,411.5C 243.342,409.381 244.175,409.047 245.5,410.5C 242.931,414.087 241.264,418.087 240.5,422.5C 240.167,422.5 239.833,422.5 239.5,422.5C 210.407,417.154 181.073,413.487 151.5,411.5C 151.167,414.833 150.833,418.167 150.5,421.5C 173.147,424.421 195.813,427.088 218.5,429.5C 221.946,430.687 225.613,431.354 229.5,431.5C 231.857,431.337 234.19,431.503 236.5,432C 236.68,437.385 234.513,441.885 230,445.5C 198.722,450.683 167.556,456.516 136.5,463C 138.002,466.005 139.002,469.171 139.5,472.5C 168.458,467.22 197.458,462.22 226.5,457.5C 226.049,462.469 225.049,467.302 223.5,472C 199.747,485.143 176.08,498.143 152.5,511C 147.42,514.624 142.253,518.124 137,521.5C 135.514,532.042 138.681,533.875 146.5,527C 172.861,513 199.028,498.5 225,483.5C 226.587,489.091 227.254,494.758 227,500.5C 210.439,523.226 192.272,544.559 172.5,564.5C 172.768,561.881 172.435,559.381 171.5,557C 176.537,555.021 176.537,553.354 171.5,552C 172.928,550.084 173.928,547.917 174.5,545.5C 175.086,545.709 175.586,546.043 176,546.5C 177.399,545.773 178.899,545.273 180.5,545C 179.833,544.667 179.167,544.333 178.5,544C 180.894,541.032 183.394,540.865 186,543.5C 187.98,541.228 187.647,538.895 185,536.5C 180.046,539.066 179.379,538.066 183,533.5C 183.71,534.973 184.876,535.64 186.5,535.5C 186.643,533.738 186.309,532.071 185.5,530.5C 186.397,530.331 187.397,529.998 188.5,529.5C 187.289,528.28 187.289,527.113 188.5,526C 187.638,523.266 186.805,523.099 186,525.5C 184.842,525.002 184.009,524.169 183.5,523C 182.965,521.463 182.632,519.963 182.5,518.5C 183.167,518.167 183.833,517.833 184.5,517.5C 183.169,516.408 182.336,515.074 182,513.5C 181.097,514.701 179.931,515.535 178.5,516C 180.301,516.317 180.634,516.984 179.5,518C 181.53,520.294 181.53,522.794 179.5,525.5C 177.425,523.415 177.425,521.581 179.5,520C 176.579,517.09 174.245,517.257 172.5,520.5C 172.709,521.086 173.043,521.586 173.5,522C 171.193,522.337 169.36,521.504 168,519.5C 167.316,520.784 167.483,521.951 168.5,523C 165.721,523.149 165.221,523.983 167,525.5C 168.666,524.66 168.833,525.16 167.5,527C 168.025,527.692 168.692,528.192 169.5,528.5C 172.6,529.011 175.433,529.011 178,528.5C 178.5,529 179,529.5 179.5,530C 177.973,531.368 176.473,531.868 175,531.5C 173.899,529.606 172.566,528.939 171,529.5C 169.89,531.037 168.39,531.703 166.5,531.5C 166.5,530.5 166.5,529.5 166.5,528.5C 163.282,528.651 162.949,529.484 165.5,531C 163.125,533.153 161.125,532.82 159.5,530C 160.654,529.086 160.487,528.253 159,527.5C 158.257,529.441 158.424,531.274 159.5,533C 158.529,534.204 157.529,534.704 156.5,534.5C 156.723,535.967 157.056,537.467 157.5,539C 156.175,538.852 155.008,539.018 154,539.5C 154.333,538.167 154.667,536.833 155,535.5C 152.957,536.579 151.624,538.246 151,540.5C 150.667,540.167 150.333,539.833 150,539.5C 149.167,541 148,542.167 146.5,543C 147.184,544.693 148.184,546.193 149.5,547.5C 146.035,547.8 145.701,549.466 148.5,552.5C 149.396,551.494 150.062,551.494 150.5,552.5C 149.96,553.748 149.293,554.915 148.5,556C 150.409,556.448 151.576,555.615 152,553.5C 152.5,554 153,554.5 153.5,555C 152.167,555.667 152.167,556.333 153.5,557C 150.833,557.667 150.833,558.333 153.5,559C 152.572,559.388 151.905,560.055 151.5,561C 152.542,562.655 153.875,563.821 155.5,564.5C 154.953,567.14 153.287,569.474 150.5,571.5C 150.709,572.086 151.043,572.586 151.5,573C 148.359,573.631 147.359,575.298 148.5,578C 145.818,580.33 146.151,580.83 149.5,579.5C 150.583,580.365 150.749,581.365 150,582.5C 148.927,581.72 147.76,581.887 146.5,583C 147.177,585.537 146.177,587.537 143.5,589C 144.13,590.892 145.13,592.559 146.5,594C 145.833,594.333 145.167,594.667 144.5,595C 146.734,595.969 148.734,597.302 150.5,599C 146.516,601.098 146.849,602.765 151.5,604C 147.728,605.389 147.728,606.389 151.5,607C 150.376,607.249 149.376,607.749 148.5,608.5C 149.834,608.529 151.167,609.363 152.5,611C 151.346,611.914 151.513,612.747 153,613.5C 153.414,613.043 153.914,612.709 154.5,612.5C 157.271,614.944 157.605,617.444 155.5,620C 156.24,621.785 156.907,623.618 157.5,625.5C 158.376,626.251 159.376,626.751 160.5,627C 159.167,627.333 157.833,627.667 156.5,628C 158.167,629 159.5,630.333 160.5,632C 159.551,632.617 158.718,632.451 158,631.5C 157.536,632.094 157.369,632.761 157.5,633.5C 157.628,635.655 157.128,637.655 156,639.5C 155.023,638.226 154.189,638.226 153.5,639.5C 137.448,600.949 128.115,560.615 125.5,518.5C 125.355,498.822 125.689,479.155 126.5,459.5C 128.256,437.288 132.256,415.622 138.5,394.5C 138.161,399.367 139.328,399.701 142,395.5C 142.333,395.833 142.667,396.167 143,396.5C 144.603,394.109 146.103,391.776 147.5,389.5 Z"/></g>
<g><path style="opacity:1" fill="#7a9ba3" d="M 915.5,458.5 C 916.997,469.127 917.664,479.96 917.5,491C 917.5,498.341 917.166,505.508 916.5,512.5C 916.643,494.488 916.309,476.488 915.5,458.5 Z"/></g>
<g><path style="opacity:1" fill="#060606" d="M 325.5,667.5 C 323.333,666.731 321.166,665.731 319,664.5C 318.721,666.412 319.554,667.746 321.5,668.5C 329.299,675.307 337.632,681.307 346.5,686.5C 346.577,687.75 347.244,688.583 348.5,689C 346.951,690.214 345.785,691.714 345,693.5C 343.374,693.854 341.541,693.854 339.5,693.5C 321.086,683.593 305.919,669.926 294,652.5C 290.599,645.619 287.599,638.619 285,631.5C 284.333,628.833 284.333,626.167 285,623.5C 289.806,619.89 293.139,615.223 295,609.5C 300.029,602.479 305.029,595.479 310,588.5C 312.333,586.167 314.667,583.833 317,581.5C 317.667,578.833 317.667,576.167 317,573.5C 291.377,563.034 269.544,547.367 251.5,526.5C 252.028,525.279 252.695,524.113 253.5,523C 252.551,522.383 251.718,522.549 251,523.5C 250.727,521.899 250.227,520.399 249.5,519C 250.624,518.751 251.624,518.251 252.5,517.5C 252.333,517.167 252.167,516.833 252,516.5C 251,517.833 250,517.833 249,516.5C 248.667,517.167 248.333,517.833 248,518.5C 247.5,516.667 246.333,515.5 244.5,515C 246.007,514.163 246.507,512.996 246,511.5C 243.93,509.151 241.763,506.984 239.5,505C 241.382,504.802 243.048,504.302 244.5,503.5C 259.834,496.871 275.834,494.704 292.5,497C 337.788,502.726 375.621,522.56 406,556.5C 428.219,588.89 426.552,619.89 401,649.5C 396.214,652.618 391.714,656.118 387.5,660C 367.717,669.591 347.051,672.091 325.5,667.5 Z"/></g>
<g><path style="opacity:1" fill="#dcab3f" d="M 251.5,526.5 C 269.544,547.367 291.377,563.034 317,573.5C 317.667,576.167 317.667,578.833 317,581.5C 314.667,583.833 312.333,586.167 310,588.5C 305.029,595.479 300.029,602.479 295,609.5C 293.139,615.223 289.806,619.89 285,623.5C 284.333,626.167 284.333,628.833 285,631.5C 287.599,638.619 290.599,645.619 294,652.5C 305.919,669.926 321.086,683.593 339.5,693.5C 343.443,696.478 347.777,698.978 352.5,701C 365.808,705.984 379.141,710.984 392.5,716C 400.977,717.503 409.31,719.003 417.5,720.5C 425.457,721.894 433.624,722.561 442,722.5C 446.68,722.499 451.18,722.166 455.5,721.5C 460.099,721.2 464.599,721.533 469,722.5C 472.47,735.532 475.803,748.532 479,761.5C 488.7,790.263 498.2,818.929 507.5,847.5C 506.178,847.67 505.011,847.337 504,846.5C 501.697,846.742 499.697,848.075 498,850.5C 496.847,848.503 495.347,848.17 493.5,849.5C 495.151,851.402 495.484,853.402 494.5,855.5C 495.891,855.109 496.891,855.942 497.5,858C 492.695,859.465 489.861,862.298 489,866.5C 488.25,865.874 487.416,865.374 486.5,865C 487.711,864.107 487.711,863.274 486.5,862.5C 484.176,862.877 483.509,863.877 484.5,865.5C 483.152,867.461 481.819,867.628 480.5,866C 481.308,865.692 481.975,865.192 482.5,864.5C 481.47,864.446 480.303,864.112 479,863.5C 479.308,858.863 477.975,858.53 475,862.5C 473.592,858.831 471.925,858.831 470,862.5C 469,861.167 468,861.167 467,862.5C 466.667,861.833 466.333,861.167 466,860.5C 463.822,861.893 462.822,863.56 463,865.5C 462.349,863.765 462.515,862.098 463.5,860.5C 463,860.167 462.5,859.833 462,859.5C 460.27,860.649 458.604,860.649 457,859.5C 456.333,863.5 455.667,863.5 455,859.5C 454.085,860.328 453.419,861.328 453,862.5C 450,862.5 447,862.5 444,862.5C 442.296,860.839 440.129,860.505 437.5,861.5C 436.167,861.167 434.833,860.833 433.5,860.5C 432.723,858.461 431.557,857.795 430,858.5C 426.906,858.207 425.406,856.541 425.5,853.5C 423.61,853.703 422.11,853.037 421,851.5C 421.019,853.107 421.185,854.774 421.5,856.5C 419.088,856.756 417.421,855.756 416.5,853.5C 414.398,855.664 411.898,855.664 409,853.5C 408.667,853.833 408.333,854.167 408,854.5C 407.781,853.062 407.281,851.729 406.5,850.5C 406.704,851.529 406.204,852.529 405,853.5C 401.989,851.059 398.489,849.893 394.5,850C 393.809,848.933 393.309,847.766 393,846.5C 392.779,849.943 391.779,850.276 390,847.5C 388.334,848.34 388.167,847.84 389.5,846C 388.318,844.322 387.152,844.488 386,846.5C 385.747,845.465 384.914,844.465 383.5,843.5C 384.016,844.758 383.35,845.758 381.5,846.5C 378.997,845.036 376.33,843.869 373.5,843C 372.62,840.432 371.12,839.932 369,841.5C 366.524,839.345 363.691,837.845 360.5,837C 361.696,836.346 361.696,835.846 360.5,835.5C 358.415,836.647 356.915,835.98 356,833.5C 355.667,834.167 355.333,834.833 355,835.5C 351.49,833.5 348.657,830.834 346.5,827.5C 345.833,828.167 345.167,828.833 344.5,829.5C 343.52,828.019 342.353,826.685 341,825.5C 340.667,825.833 340.333,826.167 340,826.5C 338.493,824.992 336.827,823.659 335,822.5C 333.327,824.917 331.494,824.917 329.5,822.5C 330.506,821.604 330.506,820.938 329.5,820.5C 328.707,820.931 327.873,821.265 327,821.5C 325.333,820.5 323.667,819.5 322,818.5C 321.098,818.743 320.265,819.077 319.5,819.5C 284.379,798.832 252.879,773.499 225,743.5C 204.655,718.138 186.821,691.138 171.5,662.5C 170.77,660.659 170.103,658.825 169.5,657C 169.833,656.667 170.167,656.333 170.5,656C 169.376,655.751 168.376,655.251 167.5,654.5C 163.45,648.305 160.617,641.639 159,634.5C 158.617,633.944 158.117,633.611 157.5,633.5C 157.369,632.761 157.536,632.094 158,631.5C 158.718,632.451 159.551,632.617 160.5,632C 159.5,630.333 158.167,629 156.5,628C 157.833,627.667 159.167,627.333 160.5,627C 159.376,626.751 158.376,626.251 157.5,625.5C 156.907,623.618 156.24,621.785 155.5,620C 157.605,617.444 157.271,614.944 154.5,612.5C 153.914,612.709 153.414,613.043 153,613.5C 151.513,612.747 151.346,611.914 152.5,611C 151.167,609.363 149.834,608.529 148.5,608.5C 149.376,607.749 150.376,607.249 151.5,607C 147.728,606.389 147.728,605.389 151.5,604C 146.849,602.765 146.516,601.098 150.5,599C 148.734,597.302 146.734,595.969 144.5,595C 145.167,594.667 145.833,594.333 146.5,594C 145.13,592.559 144.13,590.892 143.5,589C 146.177,587.537 147.177,585.537 146.5,583C 147.76,581.887 148.927,581.72 150,582.5C 150.749,581.365 150.583,580.365 149.5,579.5C 146.151,580.83 145.818,580.33 148.5,578C 147.359,575.298 148.359,573.631 151.5,573C 151.043,572.586 150.709,572.086 150.5,571.5C 153.287,569.474 154.953,567.14 155.5,564.5C 153.875,563.821 152.542,562.655 151.5,561C 151.905,560.055 152.572,559.388 153.5,559C 150.833,558.333 150.833,557.667 153.5,557C 152.167,556.333 152.167,555.667 153.5,555C 153,554.5 152.5,554 152,553.5C 151.576,555.615 150.409,556.448 148.5,556C 149.293,554.915 149.96,553.748 150.5,552.5C 150.062,551.494 149.396,551.494 148.5,552.5C 145.701,549.466 146.035,547.8 149.5,547.5C 148.184,546.193 147.184,544.693 146.5,543C 148,542.167 149.167,541 150,539.5C 150.333,539.833 150.667,540.167 151,540.5C 151.624,538.246 152.957,536.579 155,535.5C 154.667,536.833 154.333,538.167 154,539.5C 155.008,539.018 156.175,538.852 157.5,539C 157.056,537.467 156.723,535.967 156.5,534.5C 157.529,534.704 158.529,534.204 159.5,533C 158.424,531.274 158.257,529.441 159,527.5C 160.487,528.253 160.654,529.086 159.5,530C 161.125,532.82 163.125,533.153 165.5,531C 162.949,529.484 163.282,528.651 166.5,528.5C 166.5,529.5 166.5,530.5 166.5,531.5C 168.39,531.703 169.89,531.037 171,529.5C 172.566,528.939 173.899,529.606 175,531.5C 176.473,531.868 177.973,531.368 179.5,530C 179,529.5 178.5,529 178,528.5C 175.433,529.011 172.6,529.011 169.5,528.5C 168.692,528.192 168.025,527.692 167.5,527C 168.833,525.16 168.666,524.66 167,525.5C 165.221,523.983 165.721,523.149 168.5,523C 167.483,521.951 167.316,520.784 168,519.5C 169.36,521.504 171.193,522.337 173.5,522C 173.043,521.586 172.709,521.086 172.5,520.5C 174.245,517.257 176.579,517.09 179.5,520C 177.425,521.581 177.425,523.415 179.5,525.5C 181.53,522.794 181.53,520.294 179.5,518C 180.634,516.984 180.301,516.317 178.5,516C 179.931,515.535 181.097,514.701 182,513.5C 182.336,515.074 183.169,516.408 184.5,517.5C 183.833,517.833 183.167,518.167 182.5,518.5C 182.632,519.963 182.965,521.463 183.5,523C 184.009,524.169 184.842,525.002 186,525.5C 186.805,523.099 187.638,523.266 188.5,526C 187.289,527.113 187.289,528.28 188.5,529.5C 187.397,529.998 186.397,530.331 185.5,530.5C 186.309,532.071 186.643,533.738 186.5,535.5C 184.876,535.64 183.71,534.973 183,533.5C 179.379,538.066 180.046,539.066 185,536.5C 187.647,538.895 187.98,541.228 186,543.5C 183.394,540.865 180.894,541.032 178.5,544C 179.167,544.333 179.833,544.667 180.5,545C 178.899,545.273 177.399,545.773 176,546.5C 175.586,546.043 175.086,545.709 174.5,545.5C 173.928,547.917 172.928,550.084 171.5,552C 176.537,553.354 176.537,555.021 171.5,557C 172.435,559.381 172.768,561.881 172.5,564.5C 171.248,566.339 171.248,568.172 172.5,570C 175.03,571.422 177.697,571.755 180.5,571C 199.341,551.304 217.008,530.637 233.5,509C 234.5,508.333 235.5,508.333 236.5,509C 241.163,515.184 246.163,521.018 251.5,526.5 Z"/></g>
<g><path style="opacity:1" fill="#245b68" d="M 915.5,458.5 C 916.309,476.488 916.643,494.488 916.5,512.5C 916.666,518.842 916.5,525.175 916,531.5C 914.44,538.753 913.44,546.087 913,553.5C 910.47,562.679 908.803,572.012 908,581.5C 906.966,585.333 905.8,588.999 904.5,592.5C 904.808,590.076 904.474,587.743 903.5,585.5C 902.833,585.833 902.167,586.167 901.5,586.5C 900.576,583.243 898.576,580.909 895.5,579.5C 897.276,578.685 897.943,577.518 897.5,576C 896.572,575.612 895.905,574.945 895.5,574C 896.205,572.578 896.539,571.245 896.5,570C 893.429,568.432 893.096,566.598 895.5,564.5C 895.062,563.494 894.396,563.494 893.5,564.5C 892.571,563.311 892.238,561.978 892.5,560.5C 896.584,561.055 897.251,560.055 894.5,557.5C 893.534,555.604 893.201,553.604 893.5,551.5C 893.5,549.833 893.5,548.167 893.5,546.5C 899.914,502.92 898.58,459.586 889.5,416.5C 889.706,413.505 889.04,410.838 887.5,408.5C 879.954,375.183 868.287,343.517 852.5,313.5C 832.471,277.325 807.471,244.825 777.5,216C 745.451,187.777 710.117,164.61 671.5,146.5C 653.259,139.03 634.926,132.197 616.5,126C 603.743,123.539 591.076,121.039 578.5,118.5C 575.155,116.783 571.489,116.116 567.5,116.5C 561.75,114.85 555.75,114.184 549.5,114.5C 487.875,108.349 428.209,116.183 370.5,138C 353.648,144.355 337.648,152.188 322.5,161.5C 277.918,185.066 239.918,216.733 208.5,256.5C 187.409,281.944 170.409,309.944 157.5,340.5C 148.842,357.465 142.508,375.465 138.5,394.5C 132.256,415.622 128.256,437.288 126.5,459.5C 125.002,471.13 124.336,482.963 124.5,495C 124.5,503.007 124.834,510.841 125.5,518.5C 128.115,560.615 137.448,600.949 153.5,639.5C 185.155,714.666 235.488,774.166 304.5,818C 313.428,823.125 322.428,827.958 331.5,832.5C 335.604,834.725 339.604,837.225 343.5,840C 359.851,845.998 376.184,852.331 392.5,859C 406.646,863.62 420.979,867.12 435.5,869.5C 433.897,869.312 432.563,869.812 431.5,871C 432.738,870.923 433.738,871.089 434.5,871.5C 433.902,872.795 433.402,874.128 433,875.5C 432.346,874.304 431.846,874.304 431.5,875.5C 434.222,877.325 434.889,879.658 433.5,882.5C 433.916,885.448 435.249,886.115 437.5,884.5C 439.42,885.669 441.42,886.669 443.5,887.5C 445.111,884.78 445.944,881.78 446,878.5C 446.333,879.833 446.667,881.167 447,882.5C 447.667,881.167 448.333,881.167 449,882.5C 449,885.167 449,887.833 449,890.5C 450.948,891.109 452.782,891.776 454.5,892.5C 435.891,890.431 417.558,886.931 399.5,882C 287.45,847.943 203.617,779.443 148,676.5C 87.6057,548.453 90.2724,421.786 156,296.5C 202.911,216.603 269.078,158.437 354.5,122C 372.874,115.209 391.541,109.209 410.5,104C 474.424,89.3734 538.424,88.7067 602.5,102C 698.893,125.456 777.726,176.289 839,254.5C 877.706,308.277 902.373,367.944 913,433.5C 913.726,441.859 914.559,450.192 915.5,458.5 Z"/></g>
<g><path style="opacity:1" fill="#dfe4dc" d="M 293.5,528.5 C 291.507,533.096 289.507,537.763 287.5,542.5C 287.043,543.298 286.376,543.631 285.5,543.5C 283.596,543.262 282.262,542.262 281.5,540.5C 280.697,539.577 280.53,538.577 281,537.5C 283.924,536.266 286.591,534.599 289,532.5C 291.087,528.559 291.921,524.559 291.5,520.5C 292.242,519.713 293.075,519.047 294,518.5C 294.543,521.868 294.376,525.201 293.5,528.5 Z"/></g>
<g><path style="opacity:1" fill="#b2c2ad" d="M 348.5,530.5 C 350.026,531.492 350.693,532.992 350.5,535C 350.486,536.385 350.152,537.551 349.5,538.5C 348.766,537.292 348.433,535.959 348.5,534.5C 346.119,533.58 343.786,533.58 341.5,534.5C 340.065,532.599 338.398,532.266 336.5,533.5C 336.709,534.086 337.043,534.586 337.5,535C 335.664,537.493 334.664,540.326 334.5,543.5C 333.599,542.71 332.932,541.71 332.5,540.5C 332.048,530.602 336.048,527.935 344.5,532.5C 345.524,531.147 346.857,530.48 348.5,530.5 Z"/></g>
<g><path style="opacity:1" fill="#e5e5e5" d="M 560.5,516.5 C 561.209,517.404 562.209,517.737 563.5,517.5C 563.112,519.685 562.112,521.518 560.5,523C 560.905,523.945 561.572,524.612 562.5,525C 576.702,528.905 590.702,533.071 604.5,537.5C 603.486,538.765 601.986,539.431 600,539.5C 595.404,539.349 591.07,538.349 587,536.5C 586.127,536.735 585.293,537.069 584.5,537.5C 580.938,533.623 576.604,532.623 571.5,534.5C 567.133,531.957 562.8,529.623 558.5,527.5C 556.735,526.539 554.735,526.205 552.5,526.5C 553.671,522.586 556.337,519.253 560.5,516.5 Z"/></g>
<g><path style="opacity:1" fill="#8d9a87" d="M 348.5,530.5 C 346.857,530.48 345.524,531.147 344.5,532.5C 336.048,527.935 332.048,530.602 332.5,540.5C 331.842,539.207 331.508,537.707 331.5,536C 331.859,532.428 332.526,528.928 333.5,525.5C 338.767,526.589 343.767,528.256 348.5,530.5 Z"/></g>
<g><path style="opacity:1" fill="#95a392" d="M 281.5,516.5 C 278.11,518.624 276.277,521.624 276,525.5C 277.617,523.237 279.45,521.237 281.5,519.5C 279.146,524.209 276.812,528.875 274.5,533.5C 273.038,534.471 271.705,534.138 270.5,532.5C 269.61,530.218 269.444,527.885 270,525.5C 273.175,522.657 276.009,519.49 278.5,516C 280.044,514.813 281.711,514.48 283.5,515C 282.956,515.717 282.289,516.217 281.5,516.5 Z"/></g>
<g><path style="opacity:1" fill="#677a67" d="M 259.5,523.5 C 262.167,523.5 264.833,523.5 267.5,523.5C 264.833,527.5 262.167,527.5 259.5,523.5 Z"/></g>
<g><path style="opacity:1" fill="#cbd7c7" d="M 315.5,522.5 C 319.182,522.335 322.848,522.501 326.5,523C 328.426,523.422 329.426,524.589 329.5,526.5C 326.484,534.866 322.651,542.866 318,550.5C 317.502,553.482 317.335,556.482 317.5,559.5C 315.801,559.66 314.134,559.494 312.5,559C 308.229,556.533 303.896,554.366 299.5,552.5C 300.803,549.563 302.47,546.897 304.5,544.5C 304.351,545.552 304.517,546.552 305,547.5C 305.333,547.167 305.667,546.833 306,546.5C 307.982,548.246 307.815,549.579 305.5,550.5C 304.833,549.833 304.167,549.167 303.5,548.5C 302.369,550.074 302.202,551.741 303,553.5C 304.154,551.043 305.488,551.043 307,553.5C 309.878,552.311 312.712,550.978 315.5,549.5C 316.66,547.854 317.327,546.021 317.5,544C 316.841,541.538 316.507,539.038 316.5,536.5C 314.508,536.672 312.842,536.005 311.5,534.5C 309.735,535.026 308.068,535.359 306.5,535.5C 307.765,529.973 310.765,525.639 315.5,522.5 Z"/></g>
<g><path style="opacity:1" fill="#9cad99" d="M 308.5,520.5 C 304.211,522.954 300.711,526.288 298,530.5C 295.814,535.605 293.48,540.605 291,545.5C 288.702,546.446 286.868,545.779 285.5,543.5C 286.376,543.631 287.043,543.298 287.5,542.5C 289.507,537.763 291.507,533.096 293.5,528.5C 294.85,527.517 295.85,526.184 296.5,524.5C 299.088,523.806 301.421,522.64 303.5,521C 301.942,520.79 300.609,520.29 299.5,519.5C 301.199,519.38 302.865,519.046 304.5,518.5C 306.171,518.668 307.504,519.335 308.5,520.5 Z"/></g>
<g><path style="opacity:1" fill="#525f50" d="M 281.5,516.5 C 281.5,517.5 281.5,518.5 281.5,519.5C 279.45,521.237 277.617,523.237 276,525.5C 276.277,521.624 278.11,518.624 281.5,516.5 Z"/></g>
<g><path style="opacity:1" fill="#888888" d="M 686.5,520.5 C 689.228,520.171 691.562,520.837 693.5,522.5C 690.933,522.279 688.599,521.612 686.5,520.5 Z"/></g>
<g><path style="opacity:1" fill="#bbc9b8" d="M 289.5,516.5 C 292.167,516.5 294.833,516.5 297.5,516.5C 297.285,518.179 297.952,519.179 299.5,519.5C 300.609,520.29 301.942,520.79 303.5,521C 301.421,522.64 299.088,523.806 296.5,524.5C 295.85,526.184 294.85,527.517 293.5,528.5C 294.376,525.201 294.543,521.868 294,518.5C 293.075,519.047 292.242,519.713 291.5,520.5C 291.921,524.559 291.087,528.559 289,532.5C 286.591,534.599 283.924,536.266 281,537.5C 280.53,538.577 280.697,539.577 281.5,540.5C 279.068,539.25 276.734,537.75 274.5,536C 275.416,535.722 276.082,535.222 276.5,534.5C 280.345,528.143 284.678,522.143 289.5,516.5 Z"/></g>
<g><path style="opacity:1" fill="#a0a0a0" d="M 673.5,517.5 C 676.495,517.294 679.162,517.96 681.5,519.5C 678.572,519.435 675.905,518.768 673.5,517.5 Z"/></g>
<g><path style="opacity:1" fill="#363d33" d="M 329.5,526.5 C 329.426,524.589 328.426,523.422 326.5,523C 322.848,522.501 319.182,522.335 315.5,522.5C 316.091,521.849 316.757,521.182 317.5,520.5C 314.463,519.259 311.463,519.259 308.5,520.5C 307.504,519.335 306.171,518.668 304.5,518.5C 302.865,519.046 301.199,519.38 299.5,519.5C 297.952,519.179 297.285,518.179 297.5,516.5C 294.833,516.5 292.167,516.5 289.5,516.5C 293.749,513.952 298.416,513.119 303.5,514C 312.824,516.204 321.824,519.037 330.5,522.5C 330.768,524.099 330.434,525.432 329.5,526.5 Z"/></g>
<g><path style="opacity:1" fill="#939292" d="M 665.5,515.5 C 668.428,515.565 671.095,516.232 673.5,517.5C 670.505,517.706 667.838,517.04 665.5,515.5 Z"/></g>
<g><path style="opacity:1" fill="#b6c7bd" d="M 261.5,515.5 C 265.702,515.183 269.702,515.517 273.5,516.5C 272.219,519.447 270.219,521.781 267.5,523.5C 264.833,523.5 262.167,523.5 259.5,523.5C 258.19,521.852 256.857,520.186 255.5,518.5C 256.722,516.022 258.722,515.022 261.5,515.5 Z"/></g>
<g><path style="opacity:1" fill="#6e7c6e" d="M 261.5,515.5 C 266.015,514.188 270.682,514.188 275.5,515.5C 275.043,516.298 274.376,516.631 273.5,516.5C 269.702,515.517 265.702,515.183 261.5,515.5 Z"/></g>
<g><path style="opacity:1" fill="#343535" d="M 410.5,519.5 C 405.712,517.941 401.379,515.607 397.5,512.5C 398.239,512.631 398.906,512.464 399.5,512C 398.304,511.346 398.304,510.846 399.5,510.5C 404.042,512.071 408.042,514.404 411.5,517.5C 411.137,518.183 410.804,518.85 410.5,519.5 Z"/></g>
<g><path style="opacity:1" fill="#f2f2f1" d="M 670.5,508.5 C 681.44,510.855 692.44,513.021 703.5,515C 704.444,517.719 704.777,520.552 704.5,523.5C 700.802,523.448 697.135,523.114 693.5,522.5C 691.562,520.837 689.228,520.171 686.5,520.5C 684.585,520.784 682.919,520.451 681.5,519.5C 679.162,517.96 676.495,517.294 673.5,517.5C 671.095,516.232 668.428,515.565 665.5,515.5C 665.687,513.436 666.187,511.436 667,509.5C 668.011,508.663 669.178,508.33 670.5,508.5 Z"/></g>
<g><path style="opacity:1" fill="#91928c" d="M 573.5,504.5 C 574.66,505.265 575.66,506.265 576.5,507.5C 574.604,508.466 572.604,508.799 570.5,508.5C 570.468,506.381 571.468,505.048 573.5,504.5 Z"/></g>
<g><path style="opacity:1" fill="#f7f7f7" d="M 436.5,503.5 C 465.774,513.047 495.107,522.714 524.5,532.5C 531.177,533.838 537.511,536.171 543.5,539.5C 537.969,546.197 531.636,552.03 524.5,557C 517.614,561.443 510.614,561.443 503.5,557C 496.454,552.311 489.121,547.978 481.5,544C 469.971,538.734 458.638,533.234 447.5,527.5C 440.38,523.032 433.047,519.032 425.5,515.5C 425.322,514.305 424.989,513.138 424.5,512C 425.856,510.433 426.523,508.6 426.5,506.5C 427.675,506.281 428.675,506.614 429.5,507.5C 427.499,509.487 426.665,511.82 427,514.5C 428.968,511.187 430.968,507.854 433,504.5C 434.011,503.663 435.178,503.33 436.5,503.5 Z"/></g>
<g><path style="opacity:1" fill="#a4a5a5" d="M 465.5,501.5 C 468.152,501.41 470.485,502.076 472.5,503.5C 469.848,503.59 467.515,502.924 465.5,501.5 Z"/></g>
<g><path style="opacity:1" fill="#787c4e" d="M 126.5,459.5 C 125.689,479.155 125.355,498.822 125.5,518.5C 124.834,510.841 124.5,503.007 124.5,495C 124.336,482.963 125.002,471.13 126.5,459.5 Z"/></g>
<g><path style="opacity:1" fill="#d1d1d1" d="M 587.5,487.5 C 595.95,490.295 604.617,493.128 613.5,496C 632.706,499.751 651.706,503.917 670.5,508.5C 669.178,508.33 668.011,508.663 667,509.5C 666.187,511.436 665.687,513.436 665.5,515.5C 641.02,511.464 616.687,506.631 592.5,501C 591.565,498.619 591.232,496.119 591.5,493.5C 587.573,493.074 583.907,492.074 580.5,490.5C 583.675,491.091 586.009,490.091 587.5,487.5 Z"/></g>
<g><path style="opacity:1" fill="#0d0d0e" d="M 353.5,471.5 C 353.586,472.496 353.252,473.329 352.5,474C 354.377,475.717 356.377,477.217 358.5,478.5C 380.052,492.112 402.385,504.446 425.5,515.5C 433.047,519.032 440.38,523.032 447.5,527.5C 446.262,527.81 446.262,528.31 447.5,529C 446.216,529.684 445.049,529.517 444,528.5C 443.5,529 443,529.5 442.5,530C 444.706,531.807 447.039,532.307 449.5,531.5C 450.382,532.76 451.382,533.926 452.5,535C 451.809,536.067 451.309,537.234 451,538.5C 450.026,533.751 448.193,533.418 445.5,537.5C 441.76,536.281 438.093,534.781 434.5,533C 426.276,528.726 418.276,524.226 410.5,519.5C 410.804,518.85 411.137,518.183 411.5,517.5C 408.042,514.404 404.042,512.071 399.5,510.5C 398.304,510.846 398.304,511.346 399.5,512C 398.906,512.464 398.239,512.631 397.5,512.5C 378.928,503.565 360.928,493.399 343.5,482C 337.883,470.447 341.216,466.947 353.5,471.5 Z"/></g>
<g><path style="opacity:1" fill="#e8e9ea" d="M 367.5,479.5 C 368.209,480.404 369.209,480.737 370.5,480.5C 392.449,488.593 414.449,496.259 436.5,503.5C 435.178,503.33 434.011,503.663 433,504.5C 430.968,507.854 428.968,511.187 427,514.5C 426.665,511.82 427.499,509.487 429.5,507.5C 428.675,506.614 427.675,506.281 426.5,506.5C 426.523,508.6 425.856,510.433 424.5,512C 424.989,513.138 425.322,514.305 425.5,515.5C 402.385,504.446 380.052,492.112 358.5,478.5C 358.369,477.761 358.536,477.094 359,476.5C 361.86,477.423 364.693,478.423 367.5,479.5 Z"/></g>
<g><path style="opacity:1" fill="#919192" d="M 541.5,482.5 C 545.387,482.646 549.054,483.313 552.5,484.5C 548.542,484.749 544.876,484.082 541.5,482.5 Z"/></g>
<g><path style="opacity:1" fill="#8f8f8f" d="M 525.5,479.5 C 529.387,479.646 533.054,480.313 536.5,481.5C 532.542,481.749 528.876,481.082 525.5,479.5 Z"/></g>
<g><path style="opacity:1" fill="#131414" d="M 458.5,465.5 C 457.244,465.461 456.244,465.961 455.5,467C 457.081,468.828 458.415,470.828 459.5,473C 464.61,471.96 469.61,472.46 474.5,474.5C 471.68,475.356 468.68,475.523 465.5,475C 465.167,475.333 464.833,475.667 464.5,476C 465.858,476.934 467.192,477.768 468.5,478.5C 450.248,474.755 431.914,471.089 413.5,467.5C 406.241,465.876 398.907,464.042 391.5,462C 383.843,460.724 376.176,459.558 368.5,458.5C 366.307,457.203 363.973,457.203 361.5,458.5C 362.852,459.524 364.185,460.524 365.5,461.5C 370.044,465.526 375.044,469.026 380.5,472C 389.985,476.215 399.652,479.715 409.5,482.5C 413.536,484.775 417.869,486.608 422.5,488C 436.971,492.364 451.305,496.864 465.5,501.5C 467.515,502.924 469.848,503.59 472.5,503.5C 491.374,509.735 510.374,515.901 529.5,522C 532.561,523.53 535.561,525.03 538.5,526.5C 535.482,526.665 532.482,526.498 529.5,526C 529.833,525.667 530.167,525.333 530.5,525C 529.354,524.355 528.354,523.522 527.5,522.5C 526.5,523.167 525.5,523.833 524.5,524.5C 522.657,523.061 520.99,523.228 519.5,525C 521.833,525.333 524.167,525.667 526.5,526C 524.833,526.167 523.167,526.333 521.5,526.5C 519.359,526.387 517.525,525.72 516,524.5C 515.5,525 515,525.5 514.5,526C 516.623,527.194 518.957,527.86 521.5,528C 520.833,528.333 520.167,528.667 519.5,529C 521.233,530.189 522.9,531.356 524.5,532.5C 495.107,522.714 465.774,513.047 436.5,503.5C 414.449,496.259 392.449,488.593 370.5,480.5C 369.095,478.547 369.761,477.547 372.5,477.5C 374.921,478.072 377.254,478.572 379.5,479C 378.09,477.628 376.423,476.795 374.5,476.5C 368.408,470.921 362.074,465.421 355.5,460C 346.592,456.044 337.592,452.377 328.5,449C 325.141,446.966 324.808,444.632 327.5,442C 331.5,441.333 335.5,441.333 339.5,442C 348.113,443.589 356.78,444.922 365.5,446C 396.358,453.635 427.358,460.135 458.5,465.5 Z"/></g>
<g><path style="opacity:1" fill="#919191" d="M 368.5,476.5 C 370.5,476.5 372.5,476.5 374.5,476.5C 376.423,476.795 378.09,477.628 379.5,479C 377.254,478.572 374.921,478.072 372.5,477.5C 369.761,477.547 369.095,478.547 370.5,480.5C 369.209,480.737 368.209,480.404 367.5,479.5C 367.557,478.391 367.89,477.391 368.5,476.5 Z"/></g>
<g><path style="opacity:1" fill="#838483" d="M 283.5,472.5 C 283.232,474.099 283.566,475.432 284.5,476.5C 284.44,477.043 284.107,477.376 283.5,477.5C 282.212,475.701 282.212,474.035 283.5,472.5 Z"/></g>
<g><path style="opacity:1" fill="#2e2e2d" d="M 353.5,471.5 C 358.638,472.991 363.638,474.657 368.5,476.5C 367.89,477.391 367.557,478.391 367.5,479.5C 364.693,478.423 361.86,477.423 359,476.5C 358.536,477.094 358.369,477.761 358.5,478.5C 356.377,477.217 354.377,475.717 352.5,474C 353.252,473.329 353.586,472.496 353.5,471.5 Z"/></g>
<g><path style="opacity:1" fill="#f8f8f8" d="M 413.5,467.5 C 431.914,471.089 450.248,474.755 468.5,478.5C 476.869,480.951 485.536,482.451 494.5,483C 509.737,487.306 525.07,490.973 540.5,494C 550.767,495.989 561.101,497.656 571.5,499C 575.775,499.7 576.442,501.534 573.5,504.5C 571.468,505.048 570.468,506.381 570.5,508.5C 566.878,510.787 563.545,513.453 560.5,516.5C 556.337,519.253 553.671,522.586 552.5,526.5C 551.181,527.897 549.514,528.563 547.5,528.5C 544.725,527.077 541.725,526.411 538.5,526.5C 535.561,525.03 532.561,523.53 529.5,522C 510.374,515.901 491.374,509.735 472.5,503.5C 470.485,502.076 468.152,501.41 465.5,501.5C 451.305,496.864 436.971,492.364 422.5,488C 417.869,486.608 413.536,484.775 409.5,482.5C 408.737,481.732 407.737,481.232 406.5,481C 407.34,479.334 406.84,479.167 405,480.5C 403.299,478.59 401.133,477.423 398.5,477C 397.167,476 397.167,475 398.5,474C 396.109,473.309 396.109,472.309 398.5,471C 397.549,470.282 397.383,469.449 398,468.5C 399.599,466.964 401.433,466.464 403.5,467C 403.167,467.333 402.833,467.667 402.5,468C 406.17,468.279 409.837,468.112 413.5,467.5 Z"/></g>
<g><path style="opacity:1" fill="#9b9a9a" d="M 276.5,460.5 C 278.833,460.5 281.167,460.5 283.5,460.5C 283.5,461.5 283.5,462.5 283.5,463.5C 281.307,462.105 278.974,461.105 276.5,460.5 Z"/></g>
<g><path style="opacity:1" fill="#eaeaea" d="M 368.5,458.5 C 376.176,459.558 383.843,460.724 391.5,462C 398.907,464.042 406.241,465.876 413.5,467.5C 409.837,468.112 406.17,468.279 402.5,468C 402.833,467.667 403.167,467.333 403.5,467C 401.433,466.464 399.599,466.964 398,468.5C 397.383,469.449 397.549,470.282 398.5,471C 396.109,472.309 396.109,473.309 398.5,474C 397.167,475 397.167,476 398.5,477C 401.133,477.423 403.299,478.59 405,480.5C 406.84,479.167 407.34,479.334 406.5,481C 407.737,481.232 408.737,481.732 409.5,482.5C 399.652,479.715 389.985,476.215 380.5,472C 375.044,469.026 370.044,465.526 365.5,461.5C 366.5,460.5 367.5,459.5 368.5,458.5 Z"/></g>
<g><path style="opacity:1" fill="#a2a3a4" d="M 368.5,458.5 C 367.5,459.5 366.5,460.5 365.5,461.5C 364.185,460.524 362.852,459.524 361.5,458.5C 363.973,457.203 366.307,457.203 368.5,458.5 Z"/></g>
<g><path style="opacity:1" fill="#09090b" d="M 239.5,422.5 C 240.952,423.302 242.618,423.802 244.5,424C 242.063,425.279 241.563,426.779 243,428.5C 243.354,426.193 244.354,425.859 246,427.5C 248.22,425.807 250.72,424.807 253.5,424.5C 253.5,425.5 253.5,426.5 253.5,427.5C 253.657,428.873 253.49,430.207 253,431.5C 248.74,432.432 246.74,435.098 247,439.5C 241.642,447.214 237.642,455.548 235,464.5C 233.8,475.387 234.8,486.053 238,496.5C 239.012,500.008 241.178,502.342 244.5,503.5C 243.048,504.302 241.382,504.802 239.5,505C 241.763,506.984 243.93,509.151 246,511.5C 246.507,512.996 246.007,514.163 244.5,515C 246.333,515.5 247.5,516.667 248,518.5C 248.333,517.833 248.667,517.167 249,516.5C 250,517.833 251,517.833 252,516.5C 252.167,516.833 252.333,517.167 252.5,517.5C 251.624,518.251 250.624,518.751 249.5,519C 250.227,520.399 250.727,521.899 251,523.5C 251.718,522.549 252.551,522.383 253.5,523C 252.695,524.113 252.028,525.279 251.5,526.5C 246.163,521.018 241.163,515.184 236.5,509C 235.5,508.333 234.5,508.333 233.5,509C 217.008,530.637 199.341,551.304 180.5,571C 177.697,571.755 175.03,571.422 172.5,570C 171.248,568.172 171.248,566.339 172.5,564.5C 192.272,544.559 210.439,523.226 227,500.5C 227.254,494.758 226.587,489.091 225,483.5C 199.028,498.5 172.861,513 146.5,527C 138.681,533.875 135.514,532.042 137,521.5C 142.253,518.124 147.42,514.624 152.5,511C 176.08,498.143 199.747,485.143 223.5,472C 225.049,467.302 226.049,462.469 226.5,457.5C 197.458,462.22 168.458,467.22 139.5,472.5C 139.002,469.171 138.002,466.005 136.5,463C 167.556,456.516 198.722,450.683 230,445.5C 234.513,441.885 236.68,437.385 236.5,432C 234.19,431.503 231.857,431.337 229.5,431.5C 226.124,429.918 222.458,429.251 218.5,429.5C 195.813,427.088 173.147,424.421 150.5,421.5C 150.833,418.167 151.167,414.833 151.5,411.5C 181.073,413.487 210.407,417.154 239.5,422.5 Z"/></g>
<g><path style="opacity:1" fill="#6c5423" d="M 218.5,429.5 C 222.458,429.251 226.124,429.918 229.5,431.5C 225.613,431.354 221.946,430.687 218.5,429.5 Z"/></g>
<g><path style="opacity:1" fill="#727273" d="M 261.5,422.5 C 261.56,421.957 261.893,421.624 262.5,421.5C 263.487,424.768 263.82,428.102 263.5,431.5C 262.833,428.5 262.167,425.5 261.5,422.5 Z"/></g>
<g><path style="opacity:1" fill="#9a8c4c" d="M 887.5,408.5 C 889.04,410.838 889.706,413.505 889.5,416.5C 888.232,414.095 887.565,411.428 887.5,408.5 Z"/></g>
<g><path style="opacity:1" fill="#dca93c" d="M 852.5,313.5 C 868.287,343.517 879.954,375.183 887.5,408.5C 887.565,411.428 888.232,414.095 889.5,416.5C 898.58,459.586 899.914,502.92 893.5,546.5C 893.762,545.022 893.429,543.689 892.5,542.5C 892.167,542.667 891.833,542.833 891.5,543C 888.331,547.572 885.331,551.739 882.5,555.5C 883.529,555.296 884.529,555.796 885.5,557C 883.875,557.853 883.542,558.853 884.5,560C 882.321,560.442 881.655,561.442 882.5,563C 882.004,564.996 881.004,566.663 879.5,568C 880.841,571.262 880.508,571.762 878.5,569.5C 877.833,569.167 877.167,568.833 876.5,568.5C 876.167,569.167 875.833,569.833 875.5,570.5C 874.5,567.833 873.5,567.833 872.5,570.5C 870.234,571.314 867.9,571.814 865.5,572C 866.833,572.333 868.167,572.667 869.5,573C 868.748,573.671 868.414,574.504 868.5,575.5C 843.098,567.639 821.431,553.972 803.5,534.5C 805.851,532.797 808.518,532.297 811.5,533C 810.833,533.667 810.167,534.333 809.5,535C 814.568,537.944 819.568,540.777 824.5,543.5C 825.192,542.975 825.692,542.308 826,541.5C 827.115,546.736 829.115,547.403 832,543.5C 832.346,545.218 832.846,546.885 833.5,548.5C 833.291,549.086 832.957,549.586 832.5,550C 833.833,550.333 835.167,550.667 836.5,551C 835.85,552.609 836.35,554.109 838,555.5C 840.09,554.209 841.424,554.876 842,557.5C 842.333,556.5 842.667,555.5 843,554.5C 844.333,556.167 845.667,557.833 847,559.5C 847.419,558.328 848.085,557.328 849,556.5C 849.333,558.5 849.667,560.5 850,562.5C 851.765,561.761 853.765,561.761 856,562.5C 857.099,559.956 858.265,559.956 859.5,562.5C 859.291,563.086 858.957,563.586 858.5,564C 859.667,565.167 860.833,566.333 862,567.5C 862.333,566.167 862.667,564.833 863,563.5C 863.667,566.167 864.333,566.167 865,563.5C 865.333,564.167 865.667,564.833 866,565.5C 868.226,563.841 869.893,564.508 871,567.5C 872.487,566.747 872.654,565.914 871.5,565C 876.907,564.661 877.574,562.994 873.5,560C 875.891,559.309 875.891,558.309 873.5,557C 877.599,555.233 878.599,552.733 876.5,549.5C 877.587,548.895 878.754,549.228 880,550.5C 880.743,548.559 880.576,546.726 879.5,545C 880.167,543.667 881.167,542.667 882.5,542C 881.167,541.667 879.833,541.333 878.5,541C 880.481,540.395 880.815,539.395 879.5,538C 881.831,535.8 881.831,533.8 879.5,532C 883.499,530.319 885.499,527.319 885.5,523C 884.994,520.956 884.661,518.956 884.5,517C 885.788,517.027 886.788,516.027 887.5,514C 886.285,511.904 885.451,512.071 885,514.5C 884.517,513.552 884.351,512.552 884.5,511.5C 885.552,511.649 886.552,511.483 887.5,511C 886.366,509.984 886.699,509.317 888.5,509C 884.5,507.667 884.5,506.333 888.5,505C 887.377,503.956 886.044,503.29 884.5,503C 886.725,502.439 888.725,501.439 890.5,500C 889.874,499.25 889.374,498.416 889,497.5C 888.086,498.654 887.253,498.487 886.5,497C 887.308,496.692 887.975,496.192 888.5,495.5C 887.833,495.167 887.167,494.833 886.5,494.5C 887.84,493.312 888.507,491.812 888.5,490C 887.451,487.031 886.451,484.031 885.5,481C 886.308,480.692 886.975,480.192 887.5,479.5C 886.471,479.704 885.471,479.204 884.5,478C 885.308,477.692 885.975,477.192 886.5,476.5C 885.5,475.667 884.5,474.833 883.5,474C 884.167,472 884.833,470 885.5,468C 884.328,467.581 883.328,466.915 882.5,466C 884.246,465.529 885.913,464.862 887.5,464C 886.572,463.612 885.905,462.945 885.5,462C 886.424,460.85 886.424,459.85 885.5,459C 886.167,458.333 886.833,457.667 887.5,457C 885.433,455.343 884.1,453.676 883.5,452C 885.744,449.651 886.911,450.151 887,453.5C 887.374,452.584 887.874,451.75 888.5,451C 886.587,449.209 884.92,447.209 883.5,445C 884.364,443.863 885.364,442.53 886.5,441C 885.167,440.667 883.833,440.333 882.5,440C 882.833,439.667 883.167,439.333 883.5,439C 882.289,438.213 881.289,437.546 880.5,437C 881.791,434.95 882.291,432.783 882,430.5C 880.933,429.809 879.766,429.309 878.5,429C 885.375,424.627 885.041,423.627 877.5,426C 881.597,423.986 881.93,421.986 878.5,420C 880.657,418.915 880.824,417.749 879,416.5C 878.667,417.167 878.333,417.833 878,418.5C 877.667,417.167 877.333,415.833 877,414.5C 876.195,416.901 875.362,416.734 874.5,414C 877.668,413.418 878.001,412.418 875.5,411C 875.833,410.667 876.167,410.333 876.5,410C 875.5,409.667 874.5,409.333 873.5,409C 874.833,408.333 874.833,407.667 873.5,407C 874.738,407.077 875.738,406.911 876.5,406.5C 875.636,404.803 874.303,403.637 872.5,403C 872.982,401.992 873.148,400.825 873,399.5C 873.667,400.833 874.333,400.833 875,399.5C 875.333,400.167 875.667,400.833 876,401.5C 877.241,400.062 877.741,398.562 877.5,397C 875.919,396.293 874.419,395.46 873,394.5C 872.275,396.158 871.108,396.658 869.5,396C 872.167,395.333 872.167,394.667 869.5,394C 872.482,390.945 871.816,388.945 867.5,388C 868.833,387.333 868.833,386.667 867.5,386C 868.167,384.667 869.167,383.667 870.5,383C 868.114,381.156 866.947,378.656 867,375.5C 865.512,377.82 863.679,377.987 861.5,376C 862.308,375.692 862.975,375.192 863.5,374.5C 862.049,373.094 860.716,371.594 859.5,370C 860.549,369.508 861.549,369.674 862.5,370.5C 865.028,369.502 865.028,368.669 862.5,368C 863.167,367.667 863.833,367.333 864.5,367C 864.868,365.527 864.368,364.027 863,362.5C 862.577,363.956 861.744,364.456 860.5,364C 861.833,363.333 861.833,362.667 860.5,362C 861.167,361.667 861.833,361.333 862.5,361C 859.557,359.541 859.224,357.874 861.5,356C 857.5,355.333 857.5,354.667 861.5,354C 860.449,352.615 859.116,351.615 857.5,351C 857.501,349.601 857.835,348.101 858.5,346.5C 858,345.5 857.5,344.5 857,343.5C 855.334,344.34 855.167,343.84 856.5,342C 851.167,341.333 851.167,340.667 856.5,340C 852.506,339.57 851.84,338.07 854.5,335.5C 853.855,333.568 852.521,332.401 850.5,332C 851.609,330.187 850.942,329.354 848.5,329.5C 848.33,328.178 848.663,327.011 849.5,326C 848.5,325 847.5,324 846.5,323C 847.337,321.989 847.67,320.822 847.5,319.5C 848.189,318.293 848.355,316.959 848,315.5C 848.333,315.833 848.667,316.167 849,316.5C 850.729,316.026 851.895,315.026 852.5,313.5 Z"/></g>
<g><path style="opacity:1" fill="#0a0b0b" d="M 376.5,380.5 C 379.167,380.5 381.833,380.5 384.5,380.5C 384.334,387.841 384.5,395.174 385,402.5C 388.006,406.282 391.84,407.282 396.5,405.5C 409.769,395.198 424.436,387.532 440.5,382.5C 458.684,379.108 475.684,381.941 491.5,391C 498.798,397.109 497.631,400.609 488,401.5C 477.907,399.369 467.74,397.703 457.5,396.5C 447.171,396.531 437.505,399.031 428.5,404C 419.867,409.654 411.2,415.321 402.5,421C 378.67,427.814 367.17,418.98 368,394.5C 368.572,388.34 371.405,383.673 376.5,380.5 Z"/></g>
<g><path style="opacity:1" fill="#dda630" d="M 287.5,360.5 C 270.868,379.092 256.701,399.425 245,421.5C 243.644,422.38 242.144,422.714 240.5,422.5C 241.264,418.087 242.931,414.087 245.5,410.5C 246.148,408.914 246.648,407.247 247,405.5C 252.032,398.477 257.032,391.477 262,384.5C 267.071,373.43 274.904,364.93 285.5,359C 287.123,355.946 287.79,356.446 287.5,360.5 Z"/></g>
<g><path style="opacity:1" fill="#e3a830" d="M 165.5,335.5 C 157.968,352.95 151.968,370.95 147.5,389.5C 146.103,391.776 144.603,394.109 143,396.5C 142.667,396.167 142.333,395.833 142,395.5C 139.328,399.701 138.161,399.367 138.5,394.5C 142.508,375.465 148.842,357.465 157.5,340.5C 159.785,339.043 161.618,337.043 163,334.5C 163.671,335.252 164.504,335.586 165.5,335.5 Z"/></g>
<g><path style="opacity:1" fill="#0b0b0b" d="M 437.5,290.5 C 436.323,292.103 436.489,293.436 438,294.5C 438.971,293.802 440.137,293.802 441.5,294.5C 443.13,292.319 444.463,292.319 445.5,294.5C 443.79,298.535 442.29,298.869 441,295.5C 440.259,296.641 439.425,296.641 438.5,295.5C 437.77,296.934 436.77,298.1 435.5,299C 436.448,299.483 437.448,299.649 438.5,299.5C 423.178,302.427 407.844,305.927 392.5,310C 364.283,319.108 338.283,332.442 314.5,350C 309.585,354.244 305.419,359.077 302,364.5C 301.333,367.833 301.333,371.167 302,374.5C 303.705,381.54 307.705,386.873 314,390.5C 316.767,387.733 319.6,384.9 322.5,382C 324.443,380.445 326.61,379.278 329,378.5C 329.772,378.645 330.439,378.978 331,379.5C 332.567,390.193 328.4,398.026 318.5,403C 298.767,410.143 288.434,403.31 287.5,382.5C 289.035,380.061 289.868,377.394 290,374.5C 288.198,375.789 287.031,377.456 286.5,379.5C 275.342,391.672 265.675,405.006 257.5,419.5C 257.833,420.167 258.167,420.833 258.5,421.5C 270.943,413.111 284.609,410.278 299.5,413C 310.234,415.881 314.567,422.714 312.5,433.5C 305.896,439.762 298.229,444.262 289.5,447C 288.556,449.719 288.223,452.552 288.5,455.5C 296.186,457.173 296.352,459.173 289,461.5C 289.334,467.168 287.834,472.168 284.5,476.5C 283.566,475.432 283.232,474.099 283.5,472.5C 283.5,469.5 283.5,466.5 283.5,463.5C 283.5,462.5 283.5,461.5 283.5,460.5C 281.167,460.5 278.833,460.5 276.5,460.5C 275.522,460.189 274.855,459.522 274.5,458.5C 279.864,456.762 281.864,453.096 280.5,447.5C 277.353,447.263 274.353,446.43 271.5,445C 267.641,441.103 264.975,436.603 263.5,431.5C 263.82,428.102 263.487,424.768 262.5,421.5C 261.893,421.624 261.56,421.957 261.5,422.5C 259.586,423.185 257.586,423.685 255.5,424C 254.915,425.302 254.249,426.469 253.5,427.5C 253.5,426.5 253.5,425.5 253.5,424.5C 250.72,424.807 248.22,425.807 246,427.5C 244.354,425.859 243.354,426.193 243,428.5C 241.563,426.779 242.063,425.279 244.5,424C 242.618,423.802 240.952,423.302 239.5,422.5C 239.833,422.5 240.167,422.5 240.5,422.5C 242.144,422.714 243.644,422.38 245,421.5C 256.701,399.425 270.868,379.092 287.5,360.5C 329.257,319.961 379.257,296.627 437.5,290.5 Z"/></g>
<g><path style="opacity:1" fill="#dda837" d="M 208.5,256.5 C 208.393,258.379 208.893,258.712 210,257.5C 210.422,259.426 211.589,260.426 213.5,260.5C 213.414,262.677 212.747,264.677 211.5,266.5C 200.25,280.799 189.584,295.633 179.5,311C 180.7,312.952 180.2,314.452 178,315.5C 176.887,316.76 176.72,317.927 177.5,319C 175.968,319.7 174.968,320.866 174.5,322.5C 173.624,323.251 172.624,323.751 171.5,324C 171.5,325.333 171.5,326.667 171.5,328C 169.586,330.622 167.586,333.122 165.5,335.5C 164.504,335.586 163.671,335.252 163,334.5C 161.618,337.043 159.785,339.043 157.5,340.5C 170.409,309.944 187.409,281.944 208.5,256.5 Z"/></g>
<g><path style="opacity:1" fill="#e0a832" d="M 325.5,166.5 C 307.693,175.908 291.026,187.075 275.5,200C 273.457,201.708 271.79,203.708 270.5,206C 264.937,210.269 259.27,214.435 253.5,218.5C 250.311,223.189 246.311,227.023 241.5,230C 237.029,237.314 231.363,242.814 224.5,246.5C 221.285,251.638 217.618,256.305 213.5,260.5C 211.589,260.426 210.422,259.426 210,257.5C 208.893,258.712 208.393,258.379 208.5,256.5C 239.918,216.733 277.918,185.066 322.5,161.5C 323.787,162.768 324.787,162.435 325.5,160.5C 327.738,162.353 327.738,164.353 325.5,166.5 Z"/></g>
<g><path style="opacity:1" fill="#dfa837" d="M 626.5,136.5 C 638.869,139.848 651.203,143.181 663.5,146.5C 664.086,146.291 664.586,145.957 665,145.5C 667.109,147.418 669.275,147.751 671.5,146.5C 710.117,164.61 745.451,187.777 777.5,216C 807.471,244.825 832.471,277.325 852.5,313.5C 851.895,315.026 850.729,316.026 849,316.5C 848.667,316.167 848.333,315.833 848,315.5C 848.355,316.959 848.189,318.293 847.5,319.5C 841.109,308.566 835.276,297.233 830,285.5C 825.143,279.994 821.143,273.994 818,267.5C 814.384,264.94 811.717,261.606 810,257.5C 803.051,250.429 796.218,243.262 789.5,236C 786.073,234.204 782.906,232.037 780,229.5C 779.517,228.552 779.351,227.552 779.5,226.5C 772.171,224.517 766.837,220.184 763.5,213.5C 761.801,213.66 760.134,213.494 758.5,213C 759.833,212.333 759.833,211.667 758.5,211C 756.101,210.269 753.935,209.102 752,207.5C 751.667,207.833 751.333,208.167 751,208.5C 750.544,207.256 751.044,206.423 752.5,206C 750.702,204.495 748.868,204.328 747,205.5C 746.544,204.256 747.044,203.423 748.5,203C 746.25,202.389 744.583,201.056 743.5,199C 742.551,198.383 741.718,198.549 741,199.5C 737.908,197.371 734.742,195.371 731.5,193.5C 731.921,188.417 730.421,187.751 727,191.5C 728.14,187.896 727.307,184.73 724.5,182C 716.597,178.362 708.764,174.529 701,170.5C 700.667,170.833 700.333,171.167 700,171.5C 699.667,170.5 699.333,169.5 699,168.5C 697.796,169.471 697.296,170.471 697.5,171.5C 696.183,169.841 694.517,168.674 692.5,168C 693.696,167.346 693.696,166.846 692.5,166.5C 691.833,167.5 691.167,168.5 690.5,169.5C 689.289,168.726 689.289,167.893 690.5,167C 688.939,166.682 687.772,165.849 687,164.5C 686.275,166.158 685.108,166.658 683.5,166C 686.167,163.76 685.667,162.26 682,161.5C 681.667,162.167 681.333,162.833 681,163.5C 679.509,161.996 677.676,161.163 675.5,161C 674.773,159.601 674.273,158.101 674,156.5C 673.333,159.167 672.667,159.167 672,156.5C 671.667,157.167 671.333,157.833 671,158.5C 669.324,157.939 667.991,156.939 667,155.5C 666.667,155.833 666.333,156.167 666,156.5C 665.047,152.547 662.547,150.381 658.5,150C 657.62,147.432 656.12,146.932 654,148.5C 652.775,148.138 651.609,147.638 650.5,147C 651.696,146.346 651.696,145.846 650.5,145.5C 649.232,146.428 647.899,146.595 646.5,146C 647.167,145.667 647.833,145.333 648.5,145C 647.109,143.35 645.609,142.85 644,143.5C 637.842,141.684 632.009,139.351 626.5,136.5 Z"/></g>
<g><path style="opacity:1" fill="#e0a92f" d="M 549.5,114.5 C 555.75,114.184 561.75,114.85 567.5,116.5C 570.974,117.525 574.64,118.192 578.5,118.5C 591.076,121.039 603.743,123.539 616.5,126C 634.926,132.197 653.259,139.03 671.5,146.5C 669.275,147.751 667.109,147.418 665,145.5C 664.586,145.957 664.086,146.291 663.5,146.5C 651.203,143.181 638.869,139.848 626.5,136.5C 604.308,129.066 581.308,124.066 557.5,121.5C 555.751,118.625 553.085,117.292 549.5,117.5C 549.5,116.5 549.5,115.5 549.5,114.5 Z"/></g>
<g><path style="opacity:1" fill="#dcab40" d="M 557.5,121.5 C 581.308,124.066 604.308,129.066 626.5,136.5C 632.009,139.351 637.842,141.684 644,143.5C 645.609,142.85 647.109,143.35 648.5,145C 647.833,145.333 647.167,145.667 646.5,146C 647.899,146.595 649.232,146.428 650.5,145.5C 651.696,145.846 651.696,146.346 650.5,147C 651.609,147.638 652.775,148.138 654,148.5C 656.12,146.932 657.62,147.432 658.5,150C 662.547,150.381 665.047,152.547 666,156.5C 666.333,156.167 666.667,155.833 667,155.5C 667.991,156.939 669.324,157.939 671,158.5C 671.333,157.833 671.667,157.167 672,156.5C 672.667,159.167 673.333,159.167 674,156.5C 674.273,158.101 674.773,159.601 675.5,161C 677.676,161.163 679.509,161.996 681,163.5C 681.333,162.833 681.667,162.167 682,161.5C 685.667,162.26 686.167,163.76 683.5,166C 685.108,166.658 686.275,166.158 687,164.5C 687.772,165.849 688.939,166.682 690.5,167C 689.289,167.893 689.289,168.726 690.5,169.5C 691.167,168.5 691.833,167.5 692.5,166.5C 693.696,166.846 693.696,167.346 692.5,168C 694.517,168.674 696.183,169.841 697.5,171.5C 697.296,170.471 697.796,169.471 699,168.5C 699.333,169.5 699.667,170.5 700,171.5C 700.333,171.167 700.667,170.833 701,170.5C 708.764,174.529 716.597,178.362 724.5,182C 727.307,184.73 728.14,187.896 727,191.5C 730.421,187.751 731.921,188.417 731.5,193.5C 734.742,195.371 737.908,197.371 741,199.5C 741.718,198.549 742.551,198.383 743.5,199C 744.583,201.056 746.25,202.389 748.5,203C 747.044,203.423 746.544,204.256 747,205.5C 748.868,204.328 750.702,204.495 752.5,206C 751.044,206.423 750.544,207.256 751,208.5C 751.333,208.167 751.667,207.833 752,207.5C 753.935,209.102 756.101,210.269 758.5,211C 759.833,211.667 759.833,212.333 758.5,213C 760.134,213.494 761.801,213.66 763.5,213.5C 766.837,220.184 772.171,224.517 779.5,226.5C 779.351,227.552 779.517,228.552 780,229.5C 782.906,232.037 786.073,234.204 789.5,236C 796.218,243.262 803.051,250.429 810,257.5C 811.717,261.606 814.384,264.94 818,267.5C 821.143,273.994 825.143,279.994 830,285.5C 835.276,297.233 841.109,308.566 847.5,319.5C 847.67,320.822 847.337,321.989 846.5,323C 847.5,324 848.5,325 849.5,326C 848.663,327.011 848.33,328.178 848.5,329.5C 850.942,329.354 851.609,330.187 850.5,332C 852.521,332.401 853.855,333.568 854.5,335.5C 851.84,338.07 852.506,339.57 856.5,340C 851.167,340.667 851.167,341.333 856.5,342C 855.167,343.84 855.334,344.34 857,343.5C 857.5,344.5 858,345.5 858.5,346.5C 857.835,348.101 857.501,349.601 857.5,351C 859.116,351.615 860.449,352.615 861.5,354C 857.5,354.667 857.5,355.333 861.5,356C 859.224,357.874 859.557,359.541 862.5,361C 861.833,361.333 861.167,361.667 860.5,362C 861.833,362.667 861.833,363.333 860.5,364C 861.744,364.456 862.577,363.956 863,362.5C 864.368,364.027 864.868,365.527 864.5,367C 863.833,367.333 863.167,367.667 862.5,368C 865.028,368.669 865.028,369.502 862.5,370.5C 861.549,369.674 860.549,369.508 859.5,370C 860.716,371.594 862.049,373.094 863.5,374.5C 862.975,375.192 862.308,375.692 861.5,376C 863.679,377.987 865.512,377.82 867,375.5C 866.947,378.656 868.114,381.156 870.5,383C 869.167,383.667 868.167,384.667 867.5,386C 868.833,386.667 868.833,387.333 867.5,388C 871.816,388.945 872.482,390.945 869.5,394C 872.167,394.667 872.167,395.333 869.5,396C 871.108,396.658 872.275,396.158 873,394.5C 874.419,395.46 875.919,396.293 877.5,397C 877.741,398.562 877.241,400.062 876,401.5C 875.667,400.833 875.333,400.167 875,399.5C 874.333,400.833 873.667,400.833 873,399.5C 873.148,400.825 872.982,401.992 872.5,403C 874.303,403.637 875.636,404.803 876.5,406.5C 875.738,406.911 874.738,407.077 873.5,407C 874.833,407.667 874.833,408.333 873.5,409C 874.5,409.333 875.5,409.667 876.5,410C 876.167,410.333 875.833,410.667 875.5,411C 878.001,412.418 877.668,413.418 874.5,414C 875.362,416.734 876.195,416.901 877,414.5C 877.333,415.833 877.667,417.167 878,418.5C 878.333,417.833 878.667,417.167 879,416.5C 880.824,417.749 880.657,418.915 878.5,420C 881.93,421.986 881.597,423.986 877.5,426C 885.041,423.627 885.375,424.627 878.5,429C 879.766,429.309 880.933,429.809 882,430.5C 882.291,432.783 881.791,434.95 880.5,437C 881.289,437.546 882.289,438.213 883.5,439C 883.167,439.333 882.833,439.667 882.5,440C 883.833,440.333 885.167,440.667 886.5,441C 885.364,442.53 884.364,443.863 883.5,445C 884.92,447.209 886.587,449.209 888.5,451C 887.874,451.75 887.374,452.584 887,453.5C 886.911,450.151 885.744,449.651 883.5,452C 884.1,453.676 885.433,455.343 887.5,457C 886.833,457.667 886.167,458.333 885.5,459C 886.424,459.85 886.424,460.85 885.5,462C 885.905,462.945 886.572,463.612 887.5,464C 885.913,464.862 884.246,465.529 882.5,466C 883.328,466.915 884.328,467.581 885.5,468C 884.833,470 884.167,472 883.5,474C 884.5,474.833 885.5,475.667 886.5,476.5C 885.975,477.192 885.308,477.692 884.5,478C 885.471,479.204 886.471,479.704 887.5,479.5C 886.975,480.192 886.308,480.692 885.5,481C 886.451,484.031 887.451,487.031 888.5,490C 888.507,491.812 887.84,493.312 886.5,494.5C 887.167,494.833 887.833,495.167 888.5,495.5C 887.975,496.192 887.308,496.692 886.5,497C 887.253,498.487 888.086,498.654 889,497.5C 889.374,498.416 889.874,499.25 890.5,500C 888.725,501.439 886.725,502.439 884.5,503C 886.044,503.29 887.377,503.956 888.5,505C 884.5,506.333 884.5,507.667 888.5,509C 886.699,509.317 886.366,509.984 887.5,511C 886.552,511.483 885.552,511.649 884.5,511.5C 884.351,512.552 884.517,513.552 885,514.5C 885.451,512.071 886.285,511.904 887.5,514C 886.788,516.027 885.788,517.027 884.5,517C 884.661,518.956 884.994,520.956 885.5,523C 885.499,527.319 883.499,530.319 879.5,532C 881.831,533.8 881.831,535.8 879.5,538C 880.815,539.395 880.481,540.395 878.5,541C 879.833,541.333 881.167,541.667 882.5,542C 881.167,542.667 880.167,543.667 879.5,545C 880.576,546.726 880.743,548.559 880,550.5C 878.754,549.228 877.587,548.895 876.5,549.5C 878.599,552.733 877.599,555.233 873.5,557C 875.891,558.309 875.891,559.309 873.5,560C 877.574,562.994 876.907,564.661 871.5,565C 872.654,565.914 872.487,566.747 871,567.5C 869.893,564.508 868.226,563.841 866,565.5C 865.667,564.833 865.333,564.167 865,563.5C 864.333,566.167 863.667,566.167 863,563.5C 862.667,564.833 862.333,566.167 862,567.5C 860.833,566.333 859.667,565.167 858.5,564C 858.957,563.586 859.291,563.086 859.5,562.5C 858.265,559.956 857.099,559.956 856,562.5C 853.765,561.761 851.765,561.761 850,562.5C 849.667,560.5 849.333,558.5 849,556.5C 848.085,557.328 847.419,558.328 847,559.5C 845.667,557.833 844.333,556.167 843,554.5C 842.667,555.5 842.333,556.5 842,557.5C 841.424,554.876 840.09,554.209 838,555.5C 836.35,554.109 835.85,552.609 836.5,551C 835.167,550.667 833.833,550.333 832.5,550C 832.957,549.586 833.291,549.086 833.5,548.5C 832.846,546.885 832.346,545.218 832,543.5C 829.115,547.403 827.115,546.736 826,541.5C 825.692,542.308 825.192,542.975 824.5,543.5C 819.568,540.777 814.568,537.944 809.5,535C 810.167,534.333 810.833,533.667 811.5,533C 808.518,532.297 805.851,532.797 803.5,534.5C 801.5,532.833 799.5,531.167 797.5,529.5C 786.724,515.602 777.224,500.936 769,485.5C 748.958,454.624 725.792,426.29 699.5,400.5C 699.167,398.667 698.833,396.833 698.5,395C 706.834,333.466 708.667,271.633 704,209.5C 703.755,205.178 702.588,201.178 700.5,197.5C 696.512,195.809 692.345,194.809 688,194.5C 677.499,196.169 667.666,199.669 658.5,205C 642.465,215.039 628.298,227.205 616,241.5C 615.765,232.463 615.098,223.463 614,214.5C 611.344,203.368 604.178,198.035 592.5,198.5C 585.553,199.817 578.553,201.317 571.5,203C 563.65,206.484 555.984,210.484 548.5,215C 520.753,234.068 494.753,255.402 470.5,279C 468.218,281.397 466.884,284.231 466.5,287.5C 456.696,287.699 447.03,288.699 437.5,290.5C 379.257,296.627 329.257,319.961 287.5,360.5C 287.79,356.446 287.123,355.946 285.5,359C 274.904,364.93 267.071,373.43 262,384.5C 257.032,391.477 252.032,398.477 247,405.5C 246.648,407.247 246.148,408.914 245.5,410.5C 244.175,409.047 243.342,409.381 243,411.5C 242.585,409.709 241.585,408.376 240,407.5C 239.316,408.784 239.483,409.951 240.5,411C 238.82,411.034 237.32,411.201 236,411.5C 235.508,410.451 235.674,409.451 236.5,408.5C 236.167,407.5 235.5,406.833 234.5,406.5C 234.467,407.989 233.967,409.322 233,410.5C 232.692,409.692 232.192,409.025 231.5,408.5C 230.549,409.326 229.549,409.492 228.5,409C 229.696,408.346 229.696,407.846 228.5,407.5C 227.808,408.025 227.308,408.692 227,409.5C 224.112,408.909 221.446,407.909 219,406.5C 218.724,408.767 218.057,411.1 217,413.5C 215.513,412.747 215.346,411.914 216.5,411C 214.721,411.979 213.055,411.646 211.5,410C 213.301,409.683 213.634,409.016 212.5,408C 213.956,407.577 214.456,406.744 214,405.5C 211.438,405.262 209.104,406.262 207,408.5C 206.667,407.5 206.333,406.5 206,405.5C 205.333,409.5 204.667,409.5 204,405.5C 203.676,407.569 202.842,407.902 201.5,406.5C 197.297,409.32 193.463,408.987 190,405.5C 187.28,406.311 184.78,406.311 182.5,405.5C 181.008,403.834 179.175,402.834 177,402.5C 172.876,402.792 168.876,402.792 165,402.5C 162.626,399.712 161.293,400.046 161,403.5C 160.487,401.479 159.32,399.979 157.5,399C 157.833,398.667 158.167,398.333 158.5,398C 156.473,397.502 154.473,397.669 152.5,398.5C 150.647,397.811 149.481,396.478 149,394.5C 148.107,395.711 147.274,395.711 146.5,394.5C 147.309,392.929 147.643,391.262 147.5,389.5C 151.968,370.95 157.968,352.95 165.5,335.5C 167.586,333.122 169.586,330.622 171.5,328C 171.5,326.667 171.5,325.333 171.5,324C 172.624,323.751 173.624,323.251 174.5,322.5C 174.968,320.866 175.968,319.7 177.5,319C 176.72,317.927 176.887,316.76 178,315.5C 180.2,314.452 180.7,312.952 179.5,311C 189.584,295.633 200.25,280.799 211.5,266.5C 212.747,264.677 213.414,262.677 213.5,260.5C 217.618,256.305 221.285,251.638 224.5,246.5C 231.363,242.814 237.029,237.314 241.5,230C 246.311,227.023 250.311,223.189 253.5,218.5C 259.27,214.435 264.937,210.269 270.5,206C 271.79,203.708 273.457,201.708 275.5,200C 291.026,187.075 307.693,175.908 325.5,166.5C 333.158,163.674 340.491,160.174 347.5,156C 350.589,155.852 353.422,155.019 356,153.5C 356.945,153.905 357.612,154.572 358,155.5C 359.154,153.043 360.488,153.043 362,155.5C 365.357,154.258 365.19,153.424 361.5,153C 362.362,150.266 363.195,150.099 364,152.5C 365.594,147.789 368.261,146.789 372,149.5C 372.667,148.167 373.333,146.833 374,145.5C 375.789,145.377 377.622,145.377 379.5,145.5C 380.814,144.687 381.981,143.687 383,142.5C 383.561,143.022 384.228,143.355 385,143.5C 386.274,142.465 387.44,141.298 388.5,140C 389.5,139.333 390.5,139.333 391.5,140C 390.304,140.654 390.304,141.154 391.5,141.5C 393.803,140.047 395.97,139.047 398,138.5C 399.279,140.937 400.779,141.437 402.5,140C 400.343,138.915 400.176,137.749 402,136.5C 403.333,136.5 404.667,136.5 406,136.5C 406.626,138.991 407.459,138.991 408.5,136.5C 410.224,137.661 411.89,137.495 413.5,136C 412.376,135.751 411.376,135.251 410.5,134.5C 410.667,134.167 410.833,133.833 411,133.5C 412,134.833 413,134.833 414,133.5C 414.667,134.167 415.333,134.833 416,135.5C 419.608,133.068 422.941,131.068 426,129.5C 427.333,130.833 428.667,130.833 430,129.5C 430.333,130.167 430.667,130.833 431,131.5C 431.689,130.643 432.522,129.977 433.5,129.5C 435.042,130.747 436.542,130.747 438,129.5C 439.085,130.293 440.252,130.96 441.5,131.5C 441.109,130.109 441.942,129.109 444,128.5C 446.836,129.265 449.67,128.932 452.5,127.5C 453.167,128.167 453.833,128.833 454.5,129.5C 455.72,128.289 456.887,128.289 458,129.5C 458.915,128.672 459.581,127.672 460,126.5C 460.419,127.672 461.085,128.672 462,129.5C 464.058,128.891 464.891,127.891 464.5,126.5C 465.251,127.376 465.751,128.376 466,129.5C 467.566,130.061 468.899,129.394 470,127.5C 470.667,128.833 471.333,128.833 472,127.5C 472.333,128.167 472.667,128.833 473,129.5C 475.857,126.399 478.857,125.732 482,127.5C 482.833,126.5 483.667,125.5 484.5,124.5C 485.963,124.632 487.463,124.965 489,125.5C 490.834,123.244 492.501,123.244 494,125.5C 494.582,122.332 495.582,121.999 497,124.5C 498.416,120.865 500.416,120.532 503,123.5C 503.308,122.692 503.808,122.025 504.5,121.5C 504.998,122.603 505.331,123.603 505.5,124.5C 507.167,123.5 508.5,122.167 509.5,120.5C 510.5,121.167 511.5,121.833 512.5,122.5C 513.983,120.054 515.149,120.388 516,123.5C 516.308,122.692 516.808,122.025 517.5,121.5C 517.911,122.262 518.077,123.262 518,124.5C 518.833,123.5 519.667,122.5 520.5,121.5C 522.739,123.12 524.573,122.787 526,120.5C 528.333,124.515 529.999,124.181 531,119.5C 533.075,121.648 535.408,121.982 538,120.5C 540.098,122.636 542.432,122.636 545,120.5C 546.667,121.167 548.333,121.833 550,122.5C 552.269,122.274 554.769,121.941 557.5,121.5 Z"/></g>
<g><path style="opacity:1" fill="#afb0b0" d="M 287.5,382.5 C 287.737,381.209 287.404,380.209 286.5,379.5C 287.031,377.456 288.198,375.789 290,374.5C 289.868,377.394 289.035,380.061 287.5,382.5 Z"/></g>
<g><path style="opacity:1" fill="#929191" d="M 623.5,364.5 C 625.04,366.838 625.706,369.505 625.5,372.5C 624.232,370.095 623.565,367.428 623.5,364.5 Z"/></g>
<g><path style="opacity:1" fill="#e17455" d="M 667.5,235.5 C 680.87,234.036 687.37,240.036 687,253.5C 689.773,296.705 687.94,339.705 681.5,382.5C 666.768,368.31 650.768,355.81 633.5,345C 630.833,342.667 628.167,340.333 625.5,338C 614.17,332.004 603.17,325.504 592.5,318.5C 613.654,287.347 638.654,259.68 667.5,235.5 Z"/></g>
<g><path style="opacity:1" fill="#8b854a" d="M 567.5,116.5 C 571.489,116.116 575.155,116.783 578.5,118.5C 574.64,118.192 570.974,117.525 567.5,116.5 Z"/></g>
<g><path style="opacity:1" fill="#dca93a" d="M 549.5,114.5 C 549.5,115.5 549.5,116.5 549.5,117.5C 553.085,117.292 555.751,118.625 557.5,121.5C 554.769,121.941 552.269,122.274 550,122.5C 548.333,121.833 546.667,121.167 545,120.5C 542.432,122.636 540.098,122.636 538,120.5C 535.408,121.982 533.075,121.648 531,119.5C 529.999,124.181 528.333,124.515 526,120.5C 524.573,122.787 522.739,123.12 520.5,121.5C 519.667,122.5 518.833,123.5 518,124.5C 518.077,123.262 517.911,122.262 517.5,121.5C 516.808,122.025 516.308,122.692 516,123.5C 515.149,120.388 513.983,120.054 512.5,122.5C 511.5,121.833 510.5,121.167 509.5,120.5C 508.5,122.167 507.167,123.5 505.5,124.5C 505.331,123.603 504.998,122.603 504.5,121.5C 503.808,122.025 503.308,122.692 503,123.5C 500.416,120.532 498.416,120.865 497,124.5C 495.582,121.999 494.582,122.332 494,125.5C 492.501,123.244 490.834,123.244 489,125.5C 487.463,124.965 485.963,124.632 484.5,124.5C 483.667,125.5 482.833,126.5 482,127.5C 478.857,125.732 475.857,126.399 473,129.5C 472.667,128.833 472.333,128.167 472,127.5C 471.333,128.833 470.667,128.833 470,127.5C 468.899,129.394 467.566,130.061 466,129.5C 465.751,128.376 465.251,127.376 464.5,126.5C 464.891,127.891 464.058,128.891 462,129.5C 461.085,128.672 460.419,127.672 460,126.5C 459.581,127.672 458.915,128.672 458,129.5C 456.887,128.289 455.72,128.289 454.5,129.5C 453.833,128.833 453.167,128.167 452.5,127.5C 449.67,128.932 446.836,129.265 444,128.5C 441.942,129.109 441.109,130.109 441.5,131.5C 440.252,130.96 439.085,130.293 438,129.5C 436.542,130.747 435.042,130.747 433.5,129.5C 432.522,129.977 431.689,130.643 431,131.5C 430.667,130.833 430.333,130.167 430,129.5C 428.667,130.833 427.333,130.833 426,129.5C 422.941,131.068 419.608,133.068 416,135.5C 415.333,134.833 414.667,134.167 414,133.5C 413,134.833 412,134.833 411,133.5C 410.833,133.833 410.667,134.167 410.5,134.5C 411.376,135.251 412.376,135.751 413.5,136C 411.89,137.495 410.224,137.661 408.5,136.5C 407.459,138.991 406.626,138.991 406,136.5C 404.667,136.5 403.333,136.5 402,136.5C 400.176,137.749 400.343,138.915 402.5,140C 400.779,141.437 399.279,140.937 398,138.5C 395.97,139.047 393.803,140.047 391.5,141.5C 390.304,141.154 390.304,140.654 391.5,140C 390.5,139.333 389.5,139.333 388.5,140C 387.44,141.298 386.274,142.465 385,143.5C 384.228,143.355 383.561,143.022 383,142.5C 381.981,143.687 380.814,144.687 379.5,145.5C 377.622,145.377 375.789,145.377 374,145.5C 373.333,146.833 372.667,148.167 372,149.5C 368.261,146.789 365.594,147.789 364,152.5C 363.195,150.099 362.362,150.266 361.5,153C 365.19,153.424 365.357,154.258 362,155.5C 360.488,153.043 359.154,153.043 358,155.5C 357.612,154.572 356.945,153.905 356,153.5C 353.422,155.019 350.589,155.852 347.5,156C 340.491,160.174 333.158,163.674 325.5,166.5C 327.738,164.353 327.738,162.353 325.5,160.5C 324.787,162.435 323.787,162.768 322.5,161.5C 337.648,152.188 353.648,144.355 370.5,138C 428.209,116.183 487.875,108.349 549.5,114.5 Z"/></g>
<g><path style="opacity:1" fill="#101313" d="M 315.5,522.5 C 310.765,525.639 307.765,529.973 306.5,535.5C 304.735,538.123 304.068,541.123 304.5,544.5C 302.47,546.897 300.803,549.563 299.5,552.5C 296.455,552.658 293.621,551.991 291,550.5C 289.605,551.815 288.605,551.481 288,549.5C 283.233,547.044 278.566,543.71 274,539.5C 272.582,537.261 271.415,534.928 270.5,532.5C 271.705,534.138 273.038,534.471 274.5,533.5C 274.842,534.338 275.508,534.672 276.5,534.5C 276.082,535.222 275.416,535.722 274.5,536C 276.734,537.75 279.068,539.25 281.5,540.5C 282.262,542.262 283.596,543.262 285.5,543.5C 286.868,545.779 288.702,546.446 291,545.5C 293.48,540.605 295.814,535.605 298,530.5C 300.711,526.288 304.211,522.954 308.5,520.5C 311.463,519.259 314.463,519.259 317.5,520.5C 316.757,521.182 316.091,521.849 315.5,522.5 Z"/></g>
<g><path style="opacity:1" fill="#e0e6dc" d="M 349.5,538.5 C 347.75,541.756 345.417,544.589 342.5,547C 338.984,547.741 336.317,546.575 334.5,543.5C 334.664,540.326 335.664,537.493 337.5,535C 337.043,534.586 336.709,534.086 336.5,533.5C 338.398,532.266 340.065,532.599 341.5,534.5C 343.786,533.58 346.119,533.58 348.5,534.5C 348.433,535.959 348.766,537.292 349.5,538.5 Z"/></g>
<g><path style="opacity:1" fill="#e9eee5" d="M 304.5,544.5 C 304.068,541.123 304.735,538.123 306.5,535.5C 308.068,535.359 309.735,535.026 311.5,534.5C 312.842,536.005 314.508,536.672 316.5,536.5C 316.507,539.038 316.841,541.538 317.5,544C 317.327,546.021 316.66,547.854 315.5,549.5C 312.712,550.978 309.878,552.311 307,553.5C 305.488,551.043 304.154,551.043 303,553.5C 302.202,551.741 302.369,550.074 303.5,548.5C 304.167,549.167 304.833,549.833 305.5,550.5C 307.815,549.579 307.982,548.246 306,546.5C 305.667,546.833 305.333,547.167 305,547.5C 304.517,546.552 304.351,545.552 304.5,544.5 Z"/></g>
<g><path style="opacity:1" fill="#e5e6e4" d="M 383.5,550.5 C 382.081,551.451 380.415,551.784 378.5,551.5C 376.912,547.518 374.579,546.851 371.5,549.5C 365.944,546.792 363.611,542.459 364.5,536.5C 368.309,539.142 371.976,541.975 375.5,545C 379.041,545.665 381.708,547.498 383.5,550.5 Z"/></g>
<g><path style="opacity:1" fill="#dfa934" d="M 893.5,546.5 C 893.5,548.167 893.5,549.833 893.5,551.5C 891.56,561.675 889.893,572.009 888.5,582.5C 887.391,582.443 886.391,582.11 885.5,581.5C 879.673,579.96 874.007,577.96 868.5,575.5C 868.414,574.504 868.748,573.671 869.5,573C 868.167,572.667 866.833,572.333 865.5,572C 867.9,571.814 870.234,571.314 872.5,570.5C 873.5,567.833 874.5,567.833 875.5,570.5C 875.833,569.833 876.167,569.167 876.5,568.5C 877.167,568.833 877.833,569.167 878.5,569.5C 880.508,571.762 880.841,571.262 879.5,568C 881.004,566.663 882.004,564.996 882.5,563C 881.655,561.442 882.321,560.442 884.5,560C 883.542,558.853 883.875,557.853 885.5,557C 884.529,555.796 883.529,555.296 882.5,555.5C 885.331,551.739 888.331,547.572 891.5,543C 891.833,542.833 892.167,542.667 892.5,542.5C 893.429,543.689 893.762,545.022 893.5,546.5 Z"/></g>
<g><path style="opacity:1" fill="#e1e2e1" d="M 558.5,527.5 C 562.8,529.623 567.133,531.957 571.5,534.5C 576.604,532.623 580.938,533.623 584.5,537.5C 585.293,537.069 586.127,536.735 587,536.5C 591.07,538.349 595.404,539.349 600,539.5C 601.986,539.431 603.486,538.765 604.5,537.5C 612.587,538.472 620.587,539.972 628.5,542C 652.224,548.356 675.891,554.69 699.5,561C 702.841,562.528 702.841,564.528 699.5,567C 693.452,567.663 687.452,567.33 681.5,566C 641.018,555.045 600.351,544.378 559.5,534C 558.833,533.333 558.167,532.667 557.5,532C 559.036,530.532 559.37,529.032 558.5,527.5 Z"/></g>
<g><path style="opacity:1" fill="#717170" d="M 383.5,550.5 C 384.043,550.56 384.376,550.893 384.5,551.5C 382.364,552.793 380.364,552.793 378.5,551.5C 380.415,551.784 382.081,551.451 383.5,550.5 Z"/></g>
<g><path style="opacity:1" fill="#080a13" d="M 797.5,529.5 C 799.5,531.167 801.5,532.833 803.5,534.5C 821.431,553.972 843.098,567.639 868.5,575.5C 874.007,577.96 879.673,579.96 885.5,581.5C 885.25,582.922 884.417,583.922 883,584.5C 874.874,582.076 866.707,579.91 858.5,578C 847.616,572.059 836.616,566.392 825.5,561C 816.645,554.818 808.311,547.984 800.5,540.5C 799.716,537.951 798.549,535.618 797,533.5C 796.235,531.934 796.402,530.601 797.5,529.5 Z"/></g>
<g><path style="opacity:1" fill="#dddcdb" d="M 554.5,576.5 C 552.856,576.286 551.356,576.62 550,577.5C 550.309,579.251 550.475,580.918 550.5,582.5C 541.005,578.252 531.671,573.752 522.5,569C 521.549,568.282 521.383,567.449 522,566.5C 523.525,563.913 525.692,563.08 528.5,564C 537.525,567.504 546.192,571.67 554.5,576.5 Z"/></g>
<g><path style="opacity:1" fill="#edecec" d="M 554.5,576.5 C 563.595,580.642 572.595,584.976 581.5,589.5C 580.527,589.987 579.527,590.487 578.5,591C 578.67,592.57 579.003,594.403 579.5,596.5C 569.37,592.6 559.703,587.934 550.5,582.5C 550.475,580.918 550.309,579.251 550,577.5C 551.356,576.62 552.856,576.286 554.5,576.5 Z"/></g>
<g><path style="opacity:1" fill="#eeeeee" d="M 833.5,620.5 C 834.368,623.731 834.368,627.065 833.5,630.5C 813,622.497 792.666,613.997 772.5,605C 768.901,601.946 768.567,598.446 771.5,594.5C 772.723,593.386 774.056,593.219 775.5,594C 795.299,601.795 814.633,610.628 833.5,620.5 Z"/></g>
<g><path style="opacity:1" fill="#efefed" d="M 307.5,613.5 C 309.527,613.338 311.527,613.505 313.5,614C 315.452,616.074 317.285,618.241 319,620.5C 321.931,627.126 324.764,633.792 327.5,640.5C 316.524,640.187 306.524,636.687 297.5,630C 298.938,629.781 300.271,629.281 301.5,628.5C 303.062,625.026 303.895,621.36 304,617.5C 305.032,615.973 306.199,614.64 307.5,613.5 Z"/></g>
<g><path style="opacity:1" fill="#ebebea" d="M 368.5,633.5 C 369.627,632.878 370.627,632.045 371.5,631C 369.981,631.331 368.648,631.164 367.5,630.5C 375.908,622.821 385.574,621.154 396.5,625.5C 386.387,635.89 374.053,642.057 359.5,644C 351.173,644.5 342.84,644.666 334.5,644.5C 334.5,643.5 334.5,642.5 334.5,641.5C 337.471,641.565 340.138,640.731 342.5,639C 338.176,638.13 333.842,637.297 329.5,636.5C 332.709,632.127 336.709,628.627 341.5,626C 350.474,624.791 356.141,628.624 358.5,637.5C 360.518,636.187 361.685,636.853 362,639.5C 364.063,637.266 366.229,635.266 368.5,633.5 Z"/></g>
<g><path style="opacity:1" fill="#8d8b8b" d="M 833.5,620.5 C 834.708,621.234 836.041,621.567 837.5,621.5C 837.296,624.518 836.963,627.518 836.5,630.5C 835.5,630.5 834.5,630.5 833.5,630.5C 834.368,627.065 834.368,623.731 833.5,620.5 Z"/></g>
<g><path style="opacity:1" fill="#767574" d="M 648.5,630.5 C 650.75,630.181 652.75,630.681 654.5,632C 647.654,632.821 640.987,632.654 634.5,631.5C 639.363,631.819 644.03,631.486 648.5,630.5 Z"/></g>
<g><path style="opacity:1" fill="#5d6159" d="M 367.5,630.5 C 368.648,631.164 369.981,631.331 371.5,631C 370.627,632.045 369.627,632.878 368.5,633.5C 366.307,633.693 363.974,633.693 361.5,633.5C 363.704,632.794 365.704,631.794 367.5,630.5 Z"/></g>
<g><path style="opacity:1" fill="#f2f2f2" d="M 735.5,660.5 C 734.631,658.283 734.298,655.95 734.5,653.5C 734.953,652.542 735.619,651.708 736.5,651C 742.115,650.568 747.115,652.235 751.5,656C 766.699,662.667 782.032,669.167 797.5,675.5C 799.19,684.296 795.523,687.463 786.5,685C 769.174,677.293 752.174,669.126 735.5,660.5 Z"/></g>
<g><path style="opacity:1" fill="#8b8c8d" d="M 734.5,653.5 C 734.298,655.95 734.631,658.283 735.5,660.5C 734.275,659.848 733.608,658.681 733.5,657C 733.514,655.615 733.848,654.449 734.5,653.5 Z"/></g>
<g><path style="opacity:1" fill="#205862" d="M 893.5,551.5 C 893.201,553.604 893.534,555.604 894.5,557.5C 897.251,560.055 896.584,561.055 892.5,560.5C 892.238,561.978 892.571,563.311 893.5,564.5C 894.396,563.494 895.062,563.494 895.5,564.5C 893.096,566.598 893.429,568.432 896.5,570C 896.539,571.245 896.205,572.578 895.5,574C 895.905,574.945 896.572,575.612 897.5,576C 897.943,577.518 897.276,578.685 895.5,579.5C 898.576,580.909 900.576,583.243 901.5,586.5C 902.167,586.167 902.833,585.833 903.5,585.5C 904.474,587.743 904.808,590.076 904.5,592.5C 901.653,604.564 898.486,616.564 895,628.5C 865.51,706.954 817.01,771.12 749.5,821C 746.09,822.743 742.757,824.577 739.5,826.5C 738.625,824.432 737.459,822.432 736,820.5C 736.141,822.462 735.974,824.296 735.5,826C 734.576,827.811 733.743,827.645 733,825.5C 731.943,827.219 731.11,829.053 730.5,831C 728.744,831.14 727.078,830.64 725.5,829.5C 724.719,830.737 723.719,831.737 722.5,832.5C 722.704,831.471 722.204,830.471 721,829.5C 720.676,831.569 719.842,831.902 718.5,830.5C 715.348,832.403 713.514,834.736 713,837.5C 711.413,836.273 710.079,836.606 709,838.5C 708.383,837.551 708.549,836.718 709.5,836C 707.567,835.749 705.734,835.249 704,834.5C 703.667,834.833 703.333,835.167 703,835.5C 701.517,833.054 700.351,833.388 699.5,836.5C 701.385,837.197 701.718,838.197 700.5,839.5C 698.305,840.769 696.139,840.769 694,839.5C 692.117,840.653 691.284,842.319 691.5,844.5C 689.669,845.052 688.003,845.052 686.5,844.5C 685.148,845.518 684.148,846.851 683.5,848.5C 682.575,847.359 681.741,847.359 681,848.5C 680.333,843.833 678.333,843.167 675,846.5C 673.989,845.663 672.822,845.33 671.5,845.5C 681.322,840.934 691.322,836.434 701.5,832C 717.171,822.833 732.504,813.167 747.5,803C 772.705,782.459 795.872,759.959 817,735.5C 852.721,690.057 876.555,639.057 888.5,582.5C 889.893,572.009 891.56,561.675 893.5,551.5 Z"/></g>
<g><path style="opacity:1" fill="#757474" d="M 325.5,667.5 C 323.901,667.232 322.568,667.566 321.5,668.5C 319.554,667.746 318.721,666.412 319,664.5C 321.166,665.731 323.333,666.731 325.5,667.5 Z"/></g>
<g><path style="opacity:1" fill="#949597" d="M 388.5,702.5 C 391.152,702.41 393.485,703.076 395.5,704.5C 392.848,704.59 390.515,703.924 388.5,702.5 Z"/></g>
<g><path style="opacity:1" fill="#f1f1f1" d="M 702.5,707.5 C 707.478,709.319 712.478,711.153 717.5,713C 731.183,719.46 744.85,726.127 758.5,733C 765.586,739.067 764.586,742.734 755.5,744C 737.636,736.478 719.97,728.478 702.5,720C 700.283,718.732 698.283,717.232 696.5,715.5C 697.833,713.5 699.5,711.833 701.5,710.5C 702.127,709.583 702.461,708.583 702.5,707.5 Z"/></g>
<g><path style="opacity:1" fill="#7a7b7c" d="M 473.5,710.5 C 474.947,709.115 475.947,709.448 476.5,711.5C 475.609,710.89 474.609,710.557 473.5,710.5 Z"/></g>
<g><path style="opacity:1" fill="#574923" d="M 417.5,720.5 C 430.155,721.192 442.821,721.525 455.5,721.5C 451.18,722.166 446.68,722.499 442,722.5C 433.624,722.561 425.457,721.894 417.5,720.5 Z"/></g>
<g><path style="opacity:1" fill="#0b0c0e" d="M 346.5,686.5 C 359.89,693.168 373.89,698.502 388.5,702.5C 390.515,703.924 392.848,704.59 395.5,704.5C 401.518,705.676 407.518,707.176 413.5,709C 433.562,711.468 453.562,711.968 473.5,710.5C 474.609,710.557 475.609,710.89 476.5,711.5C 491.676,767.146 509.343,821.812 529.5,875.5C 528.129,876.787 526.295,877.453 524,877.5C 521.967,877.494 520.134,877.161 518.5,876.5C 518.672,875.508 518.338,874.842 517.5,874.5C 514.934,865.128 511.601,856.128 507.5,847.5C 498.2,818.929 488.7,790.263 479,761.5C 475.803,748.532 472.47,735.532 469,722.5C 464.599,721.533 460.099,721.2 455.5,721.5C 442.821,721.525 430.155,721.192 417.5,720.5C 409.31,719.003 400.977,717.503 392.5,716C 379.141,710.984 365.808,705.984 352.5,701C 347.777,698.978 343.443,696.478 339.5,693.5C 341.541,693.854 343.374,693.854 345,693.5C 345.785,691.714 346.951,690.214 348.5,689C 347.244,688.583 346.577,687.75 346.5,686.5 Z"/></g>
<g><path style="opacity:1" fill="#f1f1f1" d="M 722.5,793.5 C 721.566,794.568 721.232,795.901 721.5,797.5C 719.5,797.5 717.5,797.5 715.5,797.5C 706.542,795.459 698.209,791.959 690.5,787C 681.069,784.309 672.236,780.476 664,775.5C 663.674,772.015 664.174,768.682 665.5,765.5C 671.598,768.115 677.931,770.281 684.5,772C 693.596,777.717 703.262,782.05 713.5,785C 716.412,786.24 719.079,787.906 721.5,790C 722.337,791.011 722.67,792.178 722.5,793.5 Z"/></g>
<g><path style="opacity:1" fill="#e7a82d" d="M 157.5,633.5 C 158.117,633.611 158.617,633.944 159,634.5C 160.617,641.639 163.45,648.305 167.5,654.5C 168.376,655.251 169.376,655.751 170.5,656C 170.167,656.333 169.833,656.667 169.5,657C 170.103,658.825 170.77,660.659 171.5,662.5C 186.821,691.138 204.655,718.138 225,743.5C 252.879,773.499 284.379,798.832 319.5,819.5C 319.953,820.458 320.619,821.292 321.5,822C 326.602,824.262 331.602,826.762 336.5,829.5C 336.709,830.086 337.043,830.586 337.5,831C 335.564,831.813 333.564,832.313 331.5,832.5C 322.428,827.958 313.428,823.125 304.5,818C 235.488,774.166 185.155,714.666 153.5,639.5C 154.189,638.226 155.023,638.226 156,639.5C 157.128,637.655 157.628,635.655 157.5,633.5 Z"/></g>
<g><path style="opacity:1" fill="#858584" d="M 722.5,793.5 C 722.5,795.167 722.5,796.833 722.5,798.5C 719.941,798.802 717.607,798.468 715.5,797.5C 717.5,797.5 719.5,797.5 721.5,797.5C 721.232,795.901 721.566,794.568 722.5,793.5 Z"/></g>
<g><path style="opacity:1" fill="#504f50" d="M 628.5,821.5 C 628.59,824.152 627.924,826.485 626.5,828.5C 626.41,825.848 627.076,823.515 628.5,821.5 Z"/></g>
<g><path style="opacity:1" fill="#dda93a" d="M 507.5,847.5 C 511.601,856.128 514.934,865.128 517.5,874.5C 509.35,875.493 501.017,875.826 492.5,875.5C 473.344,874.8 454.344,872.8 435.5,869.5C 420.979,867.12 406.646,863.62 392.5,859C 376.184,852.331 359.851,845.998 343.5,840C 339.604,837.225 335.604,834.725 331.5,832.5C 333.564,832.313 335.564,831.813 337.5,831C 337.043,830.586 336.709,830.086 336.5,829.5C 331.602,826.762 326.602,824.262 321.5,822C 320.619,821.292 319.953,820.458 319.5,819.5C 320.265,819.077 321.098,818.743 322,818.5C 323.667,819.5 325.333,820.5 327,821.5C 327.873,821.265 328.707,820.931 329.5,820.5C 330.506,820.938 330.506,821.604 329.5,822.5C 331.494,824.917 333.327,824.917 335,822.5C 336.827,823.659 338.493,824.992 340,826.5C 340.333,826.167 340.667,825.833 341,825.5C 342.353,826.685 343.52,828.019 344.5,829.5C 345.167,828.833 345.833,828.167 346.5,827.5C 348.657,830.834 351.49,833.5 355,835.5C 355.333,834.833 355.667,834.167 356,833.5C 356.915,835.98 358.415,836.647 360.5,835.5C 361.696,835.846 361.696,836.346 360.5,837C 363.691,837.845 366.524,839.345 369,841.5C 371.12,839.932 372.62,840.432 373.5,843C 376.33,843.869 378.997,845.036 381.5,846.5C 383.35,845.758 384.016,844.758 383.5,843.5C 384.914,844.465 385.747,845.465 386,846.5C 387.152,844.488 388.318,844.322 389.5,846C 388.167,847.84 388.334,848.34 390,847.5C 391.779,850.276 392.779,849.943 393,846.5C 393.309,847.766 393.809,848.933 394.5,850C 398.489,849.893 401.989,851.059 405,853.5C 406.204,852.529 406.704,851.529 406.5,850.5C 407.281,851.729 407.781,853.062 408,854.5C 408.333,854.167 408.667,853.833 409,853.5C 411.898,855.664 414.398,855.664 416.5,853.5C 417.421,855.756 419.088,856.756 421.5,856.5C 421.185,854.774 421.019,853.107 421,851.5C 422.11,853.037 423.61,853.703 425.5,853.5C 425.406,856.541 426.906,858.207 430,858.5C 431.557,857.795 432.723,858.461 433.5,860.5C 434.833,860.833 436.167,861.167 437.5,861.5C 440.129,860.505 442.296,860.839 444,862.5C 447,862.5 450,862.5 453,862.5C 453.419,861.328 454.085,860.328 455,859.5C 455.667,863.5 456.333,863.5 457,859.5C 458.604,860.649 460.27,860.649 462,859.5C 462.5,859.833 463,860.167 463.5,860.5C 462.515,862.098 462.349,863.765 463,865.5C 462.822,863.56 463.822,861.893 466,860.5C 466.333,861.167 466.667,861.833 467,862.5C 468,861.167 469,861.167 470,862.5C 471.925,858.831 473.592,858.831 475,862.5C 477.975,858.53 479.308,858.863 479,863.5C 480.303,864.112 481.47,864.446 482.5,864.5C 481.975,865.192 481.308,865.692 480.5,866C 481.819,867.628 483.152,867.461 484.5,865.5C 483.509,863.877 484.176,862.877 486.5,862.5C 487.711,863.274 487.711,864.107 486.5,865C 487.416,865.374 488.25,865.874 489,866.5C 489.861,862.298 492.695,859.465 497.5,858C 496.891,855.942 495.891,855.109 494.5,855.5C 495.484,853.402 495.151,851.402 493.5,849.5C 495.347,848.17 496.847,848.503 498,850.5C 499.697,848.075 501.697,846.742 504,846.5C 505.011,847.337 506.178,847.67 507.5,847.5 Z"/></g>
<g><path style="opacity:1" fill="#225b65" d="M 739.5,826.5 C 733.741,830.891 727.741,835.057 721.5,839C 639.027,887.159 550.027,904.992 454.5,892.5C 452.782,891.776 450.948,891.109 449,890.5C 449,887.833 449,885.167 449,882.5C 448.333,881.167 447.667,881.167 447,882.5C 446.667,881.167 446.333,879.833 446,878.5C 445.944,881.78 445.111,884.78 443.5,887.5C 441.42,886.669 439.42,885.669 437.5,884.5C 435.249,886.115 433.916,885.448 433.5,882.5C 434.889,879.658 434.222,877.325 431.5,875.5C 431.846,874.304 432.346,874.304 433,875.5C 433.402,874.128 433.902,872.795 434.5,871.5C 433.738,871.089 432.738,870.923 431.5,871C 432.563,869.812 433.897,869.312 435.5,869.5C 454.344,872.8 473.344,874.8 492.5,875.5C 500.984,876.493 509.651,876.826 518.5,876.5C 520.134,877.161 521.967,877.494 524,877.5C 526.295,877.453 528.129,876.787 529.5,875.5C 559.9,873.284 589.9,868.617 619.5,861.5C 619.263,860.209 619.596,859.209 620.5,858.5C 620.5,859.5 620.5,860.5 620.5,861.5C 626.613,860.972 632.613,859.806 638.5,858C 649.523,853.936 660.523,849.77 671.5,845.5C 672.822,845.33 673.989,845.663 675,846.5C 678.333,843.167 680.333,843.833 681,848.5C 681.741,847.359 682.575,847.359 683.5,848.5C 684.148,846.851 685.148,845.518 686.5,844.5C 688.003,845.052 689.669,845.052 691.5,844.5C 691.284,842.319 692.117,840.653 694,839.5C 696.139,840.769 698.305,840.769 700.5,839.5C 701.718,838.197 701.385,837.197 699.5,836.5C 700.351,833.388 701.517,833.054 703,835.5C 703.333,835.167 703.667,834.833 704,834.5C 705.734,835.249 707.567,835.749 709.5,836C 708.549,836.718 708.383,837.551 709,838.5C 710.079,836.606 711.413,836.273 713,837.5C 713.514,834.736 715.348,832.403 718.5,830.5C 719.842,831.902 720.676,831.569 721,829.5C 722.204,830.471 722.704,831.471 722.5,832.5C 723.719,831.737 724.719,830.737 725.5,829.5C 727.078,830.64 728.744,831.14 730.5,831C 731.11,829.053 731.943,827.219 733,825.5C 733.743,827.645 734.576,827.811 735.5,826C 735.974,824.296 736.141,822.462 736,820.5C 737.459,822.432 738.625,824.432 739.5,826.5 Z"/></g>
<g><path style="opacity:1" fill="#a88d41" d="M 517.5,874.5 C 518.338,874.842 518.672,875.508 518.5,876.5C 509.651,876.826 500.984,876.493 492.5,875.5C 501.017,875.826 509.35,875.493 517.5,874.5 Z"/></g>
</svg>
